<svg xmlns="http://www.w3.org/2000/svg" width="40" height="40" fill="none" viewBox="0 0 40 40"><path fill="url(#paint0_radial_15759_16822)" d="M20 38a18 18 0 1 0 0-36 18 18 0 0 0 0 36"/><path fill="url(#paint1_radial_15759_16822)" d="M20 38a18 18 0 1 0 0-36 18 18 0 0 0 0 36" opacity=".5"/><path fill="url(#paint2_radial_15759_16822)" d="M19.66 27.32s3.73-.02 5.01 2.95q.14.29.15.6c.04.4-.25.83-.97.56a14 14 0 0 0-4.2-.68c-1.09 0-3.05.23-4.19.68-.7.27-1-.15-.97-.56q.03-.32.15-.6c1.28-2.96 5.02-2.95 5.02-2.95"/><path fill="url(#paint3_radial_15759_16822)" d="M14.12 24.56c.96 0 1.74-1.17 1.74-2.62 0-1.44-.78-2.62-1.74-2.62-.95 0-1.73 1.18-1.73 2.62s.78 2.62 1.73 2.62"/><path fill="url(#paint4_linear_15759_16822)" d="M13.44 21c1.01 0 1.86 1.04 2.1 2.45q.31-.66.32-1.5c0-1.46-.78-2.63-1.74-2.63-.83 0-1.52.88-1.69 2.06q.46-.37 1-.38"/><path fill="url(#paint5_linear_15759_16822)" d="M12.27 15.56c-1.55 0-2.88 1.79-1.14 2.06 1.73.28 4.89 1.77 6.22 2.8.1.12.49.08.46-.23 0-1.18-3.65-4.63-5.54-4.63"/><path fill="url(#paint6_linear_15759_16822)" d="M19.66 28.3s3.04-.01 5.11 2.32l-.1-.34c-1.29-2.97-5.02-2.95-5.02-2.95s-3.74-.02-5.02 2.95q-.07.17-.1.34c2.08-2.33 5.13-2.32 5.13-2.32"/><path fill="url(#paint7_radial_15759_16822)" d="M25.88 24.56c.95 0 1.73-1.17 1.73-2.62 0-1.44-.78-2.62-1.73-2.62-.96 0-1.74 1.18-1.74 2.62s.78 2.62 1.74 2.62"/><path fill="url(#paint8_linear_15759_16822)" d="M26.56 21c-1 0-1.86 1.04-2.1 2.45q-.31-.66-.32-1.5c0-1.46.78-2.63 1.74-2.63.83 0 1.52.88 1.69 2.06a1.6 1.6 0 0 0-1-.38"/><path fill="url(#paint9_linear_15759_16822)" d="M27.73 15.56c1.55 0 2.88 1.79 1.14 2.06a18 18 0 0 0-6.22 2.8c-.1.12-.49.08-.46-.23 0-1.18 3.65-4.63 5.54-4.63"/><defs><radialGradient id="paint0_radial_15759_16822" cx="0" cy="0" r="1" gradientTransform="translate(16.46 12.7)scale(21.71)" gradientUnits="userSpaceOnUse"><stop stop-color="#ffdf30"/><stop offset="1" stop-color="#ffb82e"/></radialGradient><radialGradient id="paint1_radial_15759_16822" cx="0" cy="0" r="1" gradientTransform="translate(16.46 12.7)scale(17.08)" gradientUnits="userSpaceOnUse"><stop stop-color="#ffe95f"/><stop offset="1" stop-color="#ffbb47" stop-opacity="0"/></radialGradient><radialGradient id="paint2_radial_15759_16822" cx="0" cy="0" r="1" gradientTransform="matrix(3.94 0 0 2.1 19.65 29.42)" gradientUnits="userSpaceOnUse"><stop offset="0" stop-color="#7a4400"/><stop offset="1" stop-color="#643800"/></radialGradient><radialGradient id="paint3_radial_15759_16822" cx="0" cy="0" r="1" gradientTransform="matrix(.7 2.44 -1.58 .46 13.6 22)" gradientUnits="userSpaceOnUse"><stop offset="0" stop-color="#7a4400"/><stop offset="1" stop-color="#643800"/></radialGradient><radialGradient id="paint7_radial_15759_16822" cx="0" cy="0" r="1" gradientTransform="rotate(106 4.96 20.92)scale(2.54 1.65)" gradientUnits="userSpaceOnUse"><stop offset="0" stop-color="#7a4400"/><stop offset="1" stop-color="#643800"/></radialGradient><linearGradient id="paint4_linear_15759_16822" x1="14.14" x2="14.14" y1="20.12" y2="22.47" gradientUnits="userSpaceOnUse"><stop offset="0" stop-color="#3c2200"/><stop offset="1" stop-color="#512d00"/></linearGradient><linearGradient id="paint5_linear_15759_16822" x1="14.06" x2="14.06" y1="21.79" y2="16.35" gradientUnits="userSpaceOnUse"><stop offset="0" stop-color="#3c2200"/><stop offset="1" stop-color="#643800"/></linearGradient><linearGradient id="paint6_linear_15759_16822" x1="19.65" x2="19.65" y1="26.03" y2="28.87" gradientUnits="userSpaceOnUse"><stop offset="0" stop-color="#3c2200"/><stop offset="1" stop-color="#512d00"/></linearGradient><linearGradient id="paint8_linear_15759_16822" x1="25.86" x2="25.86" y1="20.12" y2="22.47" gradientUnits="userSpaceOnUse"><stop offset="0" stop-color="#3c2200"/><stop offset="1" stop-color="#512d00"/></linearGradient><linearGradient id="paint9_linear_15759_16822" x1="25.94" x2="25.94" y1="21.79" y2="16.35" gradientUnits="userSpaceOnUse"><stop offset="0" stop-color="#3c2200"/><stop offset="1" stop-color="#643800"/></linearGradient></defs></svg>
