<svg xmlns="http://www.w3.org/2000/svg" width="40" height="40" fill="none" viewBox="0 0 40 40"><path fill="url(#paint0_radial_15759_16856)" d="M20 38a18 18 0 1 0 0-36 18 18 0 0 0 0 36"/><path fill="url(#paint1_radial_15759_16856)" d="M20 38a18 18 0 1 0 0-36 18 18 0 0 0 0 36" opacity=".5"/><path fill="url(#paint2_radial_15759_16856)" d="M20 38a18 18 0 1 0 0-36 18 18 0 0 0 0 36"/><path fill="url(#paint3_radial_15759_16856)" d="M20 38a18 18 0 1 0 0-36 18 18 0 0 0 0 36"/><path fill="url(#paint4_radial_15759_16856)" d="m32.4 25.99.04-.3a.8.8 0 0 0-.55-.74 1 1 0 0 0-.53-.02 42.4 42.4 0 0 1-22.72 0 .85.85 0 0 0-1.08.75q0 .17.04.35l.2.84.17.51c1.26 2.95 4.55 8.13 12.04 8.13s10.77-5.2 12.04-8.14l.15-.45z"/><path fill="url(#paint5_radial_15759_16856)" d="M20 34.7c2.9 0 5.13-.84 6.83-2.02A16 16 0 0 0 20 31.25c-2.71 0-4.97.56-6.84 1.44 1.71 1.18 3.94 2 6.84 2"/><path fill="url(#paint6_linear_15759_16856)" d="m32.2 26.89.2-.87.03-.34a.85.85 0 0 0-1.08-.75 42.4 42.4 0 0 1-22.72 0 .85.85 0 0 0-1.08.75l.03.35.2.86q.07.23.17.49c.5 1.2 1.35 2.75 2.66 4.17-1.23-1.46.28-2.26 2.99-1.93s6.39.34 6.39.34 3.69-.01 6.39-.34 4.22.48 3 1.93a15 15 0 0 0 2.65-4.17q.1-.26.16-.5"/><path fill="url(#paint7_radial_15759_16856)" d="M20 27.3q-5.86 0-11.46-1.55l.04.5c.1.97.8 1.77 1.75 1.98a45 45 0 0 0 20.07-.16c.5-.13.87-.55.93-1.07l.12-1.24A43 43 0 0 1 20 27.3"/><path fill="url(#paint8_radial_15759_16856)" d="M12.76 9.6a4 4 0 0 0-2.24 2.86 3.9 3.9 0 0 0-5.58 4.94c1.95 4.33 10.21 5.3 10.21 5.3s4.73-6.83 2.77-11.17a3.9 3.9 0 0 0-5.16-1.94"/><path fill="url(#paint9_radial_15759_16856)" d="M14.38 9.25c3.35 2.22 3.4 7.1 1.76 9.23-1.8 2.35-3.7 2.49-7.93 2.1 3.07 1.67 6.94 2.12 6.94 2.12s4.73-6.83 2.77-11.17a3.9 3.9 0 0 0-3.54-2.28" opacity=".5"/><path fill="url(#paint10_radial_15759_16856)" d="M12.76 9.6a4 4 0 0 0-2.24 2.86 3.9 3.9 0 0 0-5.58 4.94c1.95 4.33 10.21 5.3 10.21 5.3s4.73-6.83 2.77-11.17a3.9 3.9 0 0 0-5.16-1.94" opacity=".5"/><path fill="url(#paint11_radial_15759_16856)" d="M12.76 9.6a4 4 0 0 0-2.24 2.86 3.9 3.9 0 0 0-5.58 4.94c1.95 4.33 10.21 5.3 10.21 5.3s4.73-6.83 2.77-11.17a3.9 3.9 0 0 0-5.16-1.94" opacity=".5"/><path fill="url(#paint12_radial_15759_16856)" d="M9.6 12.77c.72.67.45 2.17-.63 3.34S6.43 17.67 5.7 17c-.73-.68-.46-2.17.62-3.34s2.54-1.57 3.28-.9" opacity=".24"/><path fill="url(#paint13_radial_15759_16856)" d="M13.63 10.12c.76.33.95 1.58.42 2.8-.53 1.2-1.56 1.9-2.33 1.58-.76-.33-.94-1.58-.42-2.8.53-1.2 1.57-1.9 2.33-1.58" opacity=".24"/><path fill="url(#paint14_linear_15759_16856)" d="M13.25 10.52c2.06-.2 4.96 1.66 3.57 6.25-.84 2.75-2.26 4.6-4.84 5.29 1.79.5 3.18.66 3.18.66s4.73-6.83 2.77-11.17a3.9 3.9 0 0 0-7.4.92s1.21-1.8 2.72-1.95" opacity=".32"/><path fill="url(#paint15_radial_15759_16856)" d="M33.39 12.23a3.9 3.9 0 0 0-3.64.23 3.91 3.91 0 0 0-7.4-.9c-1.94 4.33 2.81 11.15 2.81 11.15s8.25-.99 10.2-5.33a3.9 3.9 0 0 0-1.97-5.15"/><path fill="url(#paint16_radial_15759_16856)" d="M34.73 13.2c.56 3.99-3.07 7.26-5.75 7.45-2.96.22-4.31-1.12-6.83-4.54.77 3.4 3 6.61 3 6.61s8.25-.99 10.2-5.33a3.9 3.9 0 0 0-.62-4.18" opacity=".5"/><path fill="url(#paint17_radial_15759_16856)" d="M33.39 12.23a3.9 3.9 0 0 0-3.64.23 3.91 3.91 0 0 0-7.4-.9c-1.94 4.33 2.81 11.15 2.81 11.15s8.25-.99 10.2-5.33a3.9 3.9 0 0 0-1.97-5.15" opacity=".5"/><path fill="url(#paint18_radial_15759_16856)" d="M33.39 12.23a3.9 3.9 0 0 0-3.64.23 3.91 3.91 0 0 0-7.4-.9c-1.94 4.33 2.81 11.15 2.81 11.15s8.25-.99 10.2-5.33a3.9 3.9 0 0 0-1.97-5.15" opacity=".5"/><path fill="url(#paint19_radial_15759_16856)" d="M28.91 11.96c-.02 1-1.33 1.79-2.91 1.75-1.59-.03-2.86-.86-2.85-1.87.02-1 1.33-1.78 2.91-1.75 1.6.03 2.87.87 2.85 1.87" opacity=".24"/><path fill="url(#paint20_radial_15759_16856)" d="M33.58 13.23c.26.79-.55 1.75-1.8 2.16-1.25.4-2.48.1-2.73-.69-.26-.79.55-1.75 1.8-2.16 1.24-.41 2.47-.1 2.73.69" opacity=".24"/><path fill="url(#paint21_linear_15759_16856)" d="M33.03 13.2c1.52 1.4 2.03 4.8-2.32 6.81-2.61 1.2-4.94 1.35-7.17-.11.81 1.66 1.62 2.82 1.62 2.82s8.25-.99 10.2-5.33a3.91 3.91 0 0 0-5.6-4.93s2.17-.29 3.27.73" opacity=".32"/><defs><radialGradient id="paint0_radial_15759_16856" cx="0" cy="0" r="1" gradientTransform="translate(16.46 12.7)scale(21.71)" gradientUnits="userSpaceOnUse"><stop stop-color="#ffe030"/><stop offset="1" stop-color="#ffb92e"/></radialGradient><radialGradient id="paint1_radial_15759_16856" cx="0" cy="0" r="1" gradientTransform="translate(16.46 12.7)scale(17.08)" gradientUnits="userSpaceOnUse"><stop stop-color="#ffea5f"/><stop offset="1" stop-color="#ffbc47" stop-opacity="0"/></radialGradient><radialGradient id="paint2_radial_15759_16856" cx="0" cy="0" r="1" gradientTransform="matrix(8.02 5.15 -3.76 5.85 10 20.16)" gradientUnits="userSpaceOnUse"><stop stop-color="#eb672a" stop-opacity=".5"/><stop offset=".43" stop-color="#dc641b" stop-opacity=".28"/><stop offset=".99" stop-color="#c25e00" stop-opacity="0"/></radialGradient><radialGradient id="paint3_radial_15759_16856" cx="0" cy="0" r="1" gradientTransform="rotate(147 12.04 14.48)scale(9.53 6.96)" gradientUnits="userSpaceOnUse"><stop stop-color="#eb672a" stop-opacity=".5"/><stop offset=".43" stop-color="#dc641b" stop-opacity=".28"/><stop offset=".99" stop-color="#c25e00" stop-opacity="0"/></radialGradient><radialGradient id="paint4_radial_15759_16856" cx="0" cy="0" r="1" gradientTransform="translate(20 30.2)scale(9.56)" gradientUnits="userSpaceOnUse"><stop offset="0" stop-color="#7a4400"/><stop offset="1" stop-color="#643800"/></radialGradient><radialGradient id="paint5_radial_15759_16856" cx="0" cy="0" r="1" gradientTransform="matrix(7.61 0 0 2.3 20.14 33.39)" gradientUnits="userSpaceOnUse"><stop offset=".25" stop-color="red"/><stop offset="1" stop-color="#c20000"/></radialGradient><radialGradient id="paint7_radial_15759_16856" cx="0" cy="0" r="1" gradientTransform="translate(20 27.51)scale(20.98)" gradientUnits="userSpaceOnUse"><stop offset="0" stop-color="#fff"/><stop offset="1" stop-color="#a9bcbe"/></radialGradient><radialGradient id="paint8_radial_15759_16856" cx="0" cy="0" r="1" gradientTransform="matrix(6.6 -8.99 7.13 5.23 9.46 15.03)" gradientUnits="userSpaceOnUse"><stop offset=".25" stop-color="red"/><stop offset=".86" stop-color="#c20000"/></radialGradient><radialGradient id="paint9_radial_15759_16856" cx="0" cy="0" r="1" gradientTransform="matrix(5.68 -7.74 6.14 4.5 9.43 14.3)" gradientUnits="userSpaceOnUse"><stop offset=".25" stop-color="red"/><stop offset="1" stop-color="#c20000"/></radialGradient><radialGradient id="paint10_radial_15759_16856" cx="0" cy="0" r="1" gradientTransform="matrix(6.6 -8.99 7.13 5.23 9.46 15.03)" gradientUnits="userSpaceOnUse"><stop stop-color="#fff" stop-opacity=".25"/><stop offset="1" stop-color="#fff" stop-opacity="0"/></radialGradient><radialGradient id="paint11_radial_15759_16856" cx="0" cy="0" r="1" gradientTransform="rotate(-51 25.15 -7.08)scale(8.14 4.02)" gradientUnits="userSpaceOnUse"><stop stop-color="#bd2719" stop-opacity=".25"/><stop offset="1" stop-color="#bd2719" stop-opacity="0"/></radialGradient><radialGradient id="paint12_radial_15759_16856" cx="0" cy="0" r="1" gradientTransform="matrix(2 -2.08 1.3 1.25 7.64 14.9)" gradientUnits="userSpaceOnUse"><stop stop-color="#fff"/><stop offset="1" stop-color="#fff" stop-opacity="0"/></radialGradient><radialGradient id="paint13_radial_15759_16856" cx="0" cy="0" r="1" gradientTransform="rotate(-65 16 -3.77)scale(2.4 1.49)" gradientUnits="userSpaceOnUse"><stop stop-color="#fff"/><stop offset="1" stop-color="#fff" stop-opacity="0"/></radialGradient><radialGradient id="paint15_radial_15759_16856" cx="0" cy="0" r="1" gradientTransform="matrix(11.1 -1.02 .81 8.8 27.1 13.36)" gradientUnits="userSpaceOnUse"><stop offset=".25" stop-color="red"/><stop offset=".86" stop-color="#c20000"/></radialGradient><radialGradient id="paint16_radial_15759_16856" cx="0" cy="0" r="1" gradientTransform="matrix(9.56 -.88 .7 7.58 27.64 12.85)" gradientUnits="userSpaceOnUse"><stop offset=".25" stop-color="red"/><stop offset="1" stop-color="#c20000"/></radialGradient><radialGradient id="paint17_radial_15759_16856" cx="0" cy="0" r="1" gradientTransform="matrix(11.1 -1.02 .81 8.8 27.1 13.36)" gradientUnits="userSpaceOnUse"><stop stop-color="#fff" stop-opacity=".25"/><stop offset="1" stop-color="#fff" stop-opacity="0"/></radialGradient><radialGradient id="paint18_radial_15759_16856" cx="0" cy="0" r="1" gradientTransform="matrix(8.13 -.3 .15 4.02 29.22 18.45)" gradientUnits="userSpaceOnUse"><stop stop-color="#bd2719" stop-opacity=".25"/><stop offset="1" stop-color="#bd2719" stop-opacity="0"/></radialGradient><radialGradient id="paint19_radial_15759_16856" cx="0" cy="0" r="1" gradientTransform="matrix(2.89 .12 -.08 1.8 26.04 11.91)" gradientUnits="userSpaceOnUse"><stop stop-color="#fff"/><stop offset="1" stop-color="#fff" stop-opacity="0"/></radialGradient><radialGradient id="paint20_radial_15759_16856" cx="0" cy="0" r="1" gradientTransform="matrix(2.3 -.69 .43 1.43 31.33 13.96)" gradientUnits="userSpaceOnUse"><stop stop-color="#fff"/><stop offset="1" stop-color="#fff" stop-opacity="0"/></radialGradient><linearGradient id="paint6_linear_15759_16856" x1="32.3" x2="7.85" y1="28.23" y2="28.23" gradientUnits="userSpaceOnUse"><stop offset="0" stop-color="#3c2200"/><stop offset=".5" stop-color="#512d00"/><stop offset="1" stop-color="#3c2200"/></linearGradient><linearGradient id="paint14_linear_15759_16856" x1="18.6" x2="12.19" y1="26.74" y2="9.21" gradientUnits="userSpaceOnUse"><stop stop-color="#860805"/><stop offset="1" stop-color="#bd2719" stop-opacity="0"/></linearGradient><linearGradient id="paint21_linear_15759_16856" x1="24.43" x2="33.3" y1="27.96" y2="11.54" gradientUnits="userSpaceOnUse"><stop stop-color="#860805"/><stop offset="1" stop-color="#bd2719" stop-opacity="0"/></linearGradient></defs></svg>
