<svg xmlns="http://www.w3.org/2000/svg" width="40" height="40" fill="none" viewBox="0 0 40 40"><path fill="url(#paint0_radial_15759_16937)" d="M20 38a18 18 0 1 0 0-36 18 18 0 0 0 0 36"/><path fill="url(#paint1_radial_15759_16937)" d="M20 38a18 18 0 1 0 0-36 18 18 0 0 0 0 36" opacity=".5"/><path fill="url(#paint2_linear_15759_16937)" d="M16.75 12.13c.11-.86-.6-1.5-1.92-1.67-1.14-.15-3.72.28-5.76 2.7-.39.45.06.78.42.5 1.2-.93 4.19-1.94 6.35-1.37.86.22.9-.16.9-.16"/><path fill="url(#paint3_radial_15759_16937)" d="M14.13 20.76c.95 0 1.73-1.17 1.73-2.62 0-1.44-.78-2.62-1.73-2.62-.96 0-1.74 1.18-1.74 2.62s.78 2.62 1.74 2.62"/><path fill="url(#paint4_linear_15759_16937)" d="M14.13 16.41c.74 0 1.4.65 1.73 1.61-.02-1.42-.79-2.55-1.73-2.55-.95 0-1.71 1.13-1.74 2.55.34-.96.98-1.6 1.74-1.6"/><path fill="url(#paint5_radial_15759_16937)" d="M25.87 20.76c.96 0 1.74-1.17 1.74-2.62 0-1.44-.78-2.62-1.74-2.62-.95 0-1.73 1.18-1.73 2.62s.78 2.62 1.73 2.62"/><path fill="url(#paint6_linear_15759_16937)" d="M25.87 16.48c-.74 0-1.4.65-1.73 1.6.02-1.41.79-2.55 1.73-2.55.95 0 1.71 1.14 1.74 2.56-.34-.96-.98-1.61-1.74-1.61"/><path fill="url(#paint7_linear_15759_16937)" d="M23.25 12.13c-.11-.86.6-1.5 1.92-1.67 1.14-.15 3.72.28 5.76 2.7.39.45-.06.78-.42.5-1.2-.93-4.19-1.94-6.35-1.37-.86.22-.9-.16-.9-.16"/><path fill="url(#paint8_radial_15759_16937)" d="M27.58 27.85H12.42a.85.85 0 0 1-.85-.84c0-.46.39-.85.85-.85h15.16c.46 0 .85.39.85.85s-.39.84-.85.84"/><path fill="url(#paint9_linear_15759_16937)" d="M12.34 26.62h15.33c.33 0 .62.19.76.46V27a.85.85 0 0 0-.85-.85H12.42a.85.85 0 0 0-.85.85v.07a.9.9 0 0 1 .77-.46"/><defs><radialGradient id="paint0_radial_15759_16937" cx="0" cy="0" r="1" gradientTransform="translate(16.46 12.7)scale(21.71)" gradientUnits="userSpaceOnUse"><stop stop-color="#ffe030"/><stop offset="1" stop-color="#ffb92e"/></radialGradient><radialGradient id="paint1_radial_15759_16937" cx="0" cy="0" r="1" gradientTransform="translate(16.46 12.7)scale(17.08)" gradientUnits="userSpaceOnUse"><stop stop-color="#ffea5f"/><stop offset="1" stop-color="#ffbc47" stop-opacity="0"/></radialGradient><radialGradient id="paint3_radial_15759_16937" cx="0" cy="0" r="1" gradientTransform="matrix(.7 2.44 -1.58 .46 13.6 18.21)" gradientUnits="userSpaceOnUse"><stop offset="0" stop-color="#7a4400"/><stop offset="1" stop-color="#643800"/></radialGradient><radialGradient id="paint5_radial_15759_16937" cx="0" cy="0" r="1" gradientTransform="rotate(74 .56 25.97)scale(2.54 1.65)" gradientUnits="userSpaceOnUse"><stop offset="0" stop-color="#7a4400"/><stop offset="1" stop-color="#643800"/></radialGradient><radialGradient id="paint8_radial_15759_16937" cx="0" cy="0" r="1" gradientTransform="matrix(5.99 0 0 1.08 20 27)" gradientUnits="userSpaceOnUse"><stop offset="0" stop-color="#7a4400"/><stop offset="1" stop-color="#643800"/></radialGradient><linearGradient id="paint2_linear_15759_16937" x1="12.8" x2="13.09" y1="13.08" y2="10.82" gradientUnits="userSpaceOnUse"><stop offset="0" stop-color="#3c2200"/><stop offset="1" stop-color="#7a4400"/></linearGradient><linearGradient id="paint4_linear_15759_16937" x1="14.12" x2="14.12" y1="15.51" y2="17.95" gradientUnits="userSpaceOnUse"><stop offset="0" stop-color="#3c2200"/><stop offset="1" stop-color="#512d00"/></linearGradient><linearGradient id="paint6_linear_15759_16937" x1="25.88" x2="25.88" y1="15.58" y2="18.02" gradientUnits="userSpaceOnUse"><stop offset="0" stop-color="#3c2200"/><stop offset="1" stop-color="#512d00"/></linearGradient><linearGradient id="paint7_linear_15759_16937" x1="27.2" x2="26.91" y1="13.08" y2="10.82" gradientUnits="userSpaceOnUse"><stop offset="0" stop-color="#3c2200"/><stop offset="1" stop-color="#7a4400"/></linearGradient><linearGradient id="paint9_linear_15759_16937" x1="11.57" x2="28.43" y1="26.61" y2="26.61" gradientUnits="userSpaceOnUse"><stop offset="0" stop-color="#3c2200"/><stop offset="1" stop-color="#512d00"/></linearGradient></defs></svg>
