<svg xmlns="http://www.w3.org/2000/svg" viewBox="0 0 512 512"><path fill="#ffb636" d="M378.6 355.6 45 500.7a26.8 26.8 0 0 1-34.9-34.5L156 127.5"/><path fill="#ffd469" d="m10.2 466.2 11.6-27 3-4.5c57.6-87.7 116-175 176.5-260.8l67.7 69.5C218 278.5 52 450 17.1 495.6a26.4 26.4 0 0 1-6.9-29.4z"/><path fill="#a06c33" d="M304.4 204.4c61.8 61.9 95.7 128.3 75.5 148.5-20 20-86.5-13.7-148.4-75.6S135.8 149 156 128.9s86.5 13.7 148.4 75.5z"/><path fill="#f7f9aa" d="M155.6 327.6a10.9 10.9 0 1 1-21.8 0 10.9 10.9 0 0 1 21.8 0z"/><path fill="#ffb636" d="M502 213.2a15.6 15.6 0 1 1-31.3 0 15.6 15.6 0 0 1 31.3 0zm-104.3 208a15.6 15.6 0 1 0 0 31.2 15.6 15.6 0 0 0 0-31.2z"/><path fill="#bea4ff" d="M356 79.5c-1.4 9-7.2 17-16.1 22a43.1 43.1 0 0 1-28 4.6c-5.2-.8-10.5 0-14.5 2.2-1.7 1-4.8 3.1-5.3 6.4-.5 3.4 1.8 6.3 3.2 7.7 3.1 3.2 7.8 5.4 12.9 6.2h.4c21.6 3.3 37 20.4 34.4 38.3-1.3 9-7.2 17-16 22a43.1 43.1 0 0 1-28 4.5c-5.2-.7-10.5 0-14.5 2.2-1.7 1-4.8 3.1-5.3 6.5-.8 5.3 5.8 12.4 16.5 14a10.6 10.6 0 0 1-3.1 21c-21.6-3.2-37-20.3-34.4-38.2 1.3-9 7.2-17 16-22 8-4.4 18-6 28-4.5 5.2.7 10.5 0 14.5-2.2 1.7-1 4.8-3.1 5.3-6.5.7-5.2-5.6-12.1-16-13.9h-.5c-10-1.5-19-6-25.4-12.5a30.5 30.5 0 0 1-9-25.7c1.3-9 7.2-17 16-22 8.1-4.4 18-6 28-4.6 5.3.8 10.5 0 14.5-2.2 1.8-1 4.8-3 5.3-6.4.5-3.3-1.8-6.2-3.2-7.7-3.2-3.2-8-5.5-13.3-6.3a10.6 10.6 0 0 1 3.1-21c10 1.4 19 5.9 25.4 12.4 7.1 7.3 10.4 16.7 9 25.7z"/><path fill="#ff6e83" d="M81.7 159.7a17.7 17.7 0 1 1-35.4 0 17.7 17.7 0 0 1 35.4 0zm316.5-20.5a20.5 20.5 0 1 0 0 41 20.5 20.5 0 0 0 0-41zM215.5 396a20.5 20.5 0 1 0 0 40.9 20.5 20.5 0 0 0 0-40.9zm271.3-93.6c3.1-6 .8-13.4-5.2-16.5-2.4-1.2-5.3-2.9-8.6-4.8-29-16.6-89.3-51.2-160.3 6.2a12.2 12.2 0 1 0 15.3 19c58-47 105-20 132.9-4 3.4 2 6.6 3.8 9.5 5.3a12.2 12.2 0 0 0 16.4-5.2z"/><path fill="#59cafc" d="M434.8 62.8a10.9 10.9 0 1 1-21.7 0 10.9 10.9 0 0 1 21.7 0zm-388.5-51a10.9 10.9 0 1 0 0 21.9 10.9 10.9 0 0 0 0-21.8zM217 154c1.2-2.5 2.8-5.2 4.4-8.1 8.1-14.8 19.3-35 20-58.6.8-28.3-14-54-43.9-76.4a11.7 11.7 0 1 0-14 18.8c23.7 17.8 35 36.4 34.4 57-.5 17.8-9.7 34.5-17 47.8-1.8 3.1-3.4 6-4.8 8.8a11.7 11.7 0 0 0 21 10.7z"/></svg>
