<svg xmlns="http://www.w3.org/2000/svg" width="40" height="40" fill="none" viewBox="0 0 40 40"><path fill="url(#paint0_radial_5688_13)" d="M20 38c9.942 0 18-8.058 18-18 0-9.94-8.058-18-18-18-9.94 0-18 8.06-18 18 0 9.942 8.06 18 18 18"/><path fill="url(#paint1_radial_5688_13)" d="M20 38c9.942 0 18-8.058 18-18 0-9.94-8.058-18-18-18-9.94 0-18 8.06-18 18 0 9.942 8.06 18 18 18" opacity=".5"/><path fill="url(#paint2_linear_5688_13)" d="M16.93 13.666c.191-.697-.45-1.339-1.744-1.687-1.102-.292-3.679-.338-5.918 1.361-.416.315 0 .652.372.484 1.26-.597 4.297-.979 6.379-.169.832.326.91.011.91.011"/><path fill="url(#paint3_radial_5688_13)" d="M14.117 20.968c.957 0 1.732-1.174 1.732-2.622s-.775-2.62-1.732-2.62-1.732 1.173-1.732 2.62.775 2.622 1.732 2.622"/><path fill="url(#paint4_linear_5688_13)" d="M14.117 16.602c.742 0 1.395.653 1.732 1.61-.022-1.418-.787-2.555-1.732-2.555s-1.71 1.137-1.732 2.554c.337-.956.99-1.609 1.732-1.609"/><path fill="#643800" d="M12.45 30.845a.46.46 0 0 0 .384-.112c1.833-1.62 4.668-2.498 6.794-2.498h.743c2.127 0 4.962.878 6.795 2.498.101.09.248.134.383.112.146-.022.224-.18.146-.304-1.564-2.565-4.466-4.151-7.605-4.151h-.18c-3.15 0-6.042 1.586-7.606 4.151-.09.125-.01.282.147.304"/><path fill="url(#paint5_linear_5688_13)" d="M12.452 30.845a.46.46 0 0 0 .383-.112c1.833-1.62 4.668-2.498 6.794-2.498h.743c2.126 0 4.961.877 6.795 2.498.101.09.248.134.382.112.147-.022.226-.18.147-.304-.012-.023-.034-.045-.046-.079-.145.079-.303.158-.472-.01-1.744-1.846-4.32-2.948-7.088-2.948h-.202c-2.779 0-5.377 1.113-7.121 2.992-.157.169-.304.09-.45 0-.012.023-.022.034-.034.057-.067.112.012.27.17.292"/><path fill="url(#paint6_linear_5688_13)" d="M23.072 13.666c-.191-.697.45-1.339 1.744-1.687 1.103-.292 3.679-.338 5.918 1.361.416.315 0 .652-.372.484-1.26-.597-4.297-.979-6.379-.169-.832.326-.91.011-.91.011"/><path fill="url(#paint7_radial_5688_13)" d="M25.873 20.968c.957 0 1.732-1.174 1.732-2.622s-.775-2.62-1.732-2.62-1.732 1.173-1.732 2.62.775 2.622 1.732 2.622"/><path fill="url(#paint8_linear_5688_13)" d="M25.873 16.602c.742 0 1.395.653 1.732 1.61-.022-1.418-.787-2.555-1.732-2.555s-1.71 1.137-1.732 2.554c.337-.956.99-1.609 1.732-1.609"/><defs><linearGradient id="paint2_linear_5688_13" x1="12.647" x2="13.424" y1="14.976" y2="12.074" gradientUnits="userSpaceOnUse"><stop offset=".001" stop-color="#3c2200"/><stop offset="1" stop-color="#7a4400"/></linearGradient><linearGradient id="paint4_linear_5688_13" x1="14.12" x2="14.12" y1="15.657" y2="18.213" gradientUnits="userSpaceOnUse"><stop offset=".001" stop-color="#3c2200"/><stop offset="1" stop-color="#512d00"/></linearGradient><linearGradient id="paint5_linear_5688_13" x1="19.997" x2="19.997" y1="26.57" y2="29.09" gradientUnits="userSpaceOnUse"><stop offset=".001" stop-color="#3c2200"/><stop offset="1" stop-color="#512d00"/></linearGradient><linearGradient id="paint6_linear_5688_13" x1="27.323" x2="26.545" y1="15.046" y2="12.144" gradientUnits="userSpaceOnUse"><stop offset=".001" stop-color="#3c2200"/><stop offset="1" stop-color="#7a4400"/></linearGradient><linearGradient id="paint8_linear_5688_13" x1="25.873" x2="25.873" y1="15.657" y2="18.213" gradientUnits="userSpaceOnUse"><stop offset=".001" stop-color="#3c2200"/><stop offset="1" stop-color="#512d00"/></linearGradient><radialGradient id="paint0_radial_5688_13" cx="0" cy="0" r="1" gradientTransform="translate(16.454 12.705)scale(21.7148)" gradientUnits="userSpaceOnUse"><stop stop-color="#ffe030"/><stop offset="1" stop-color="#ffb92e"/></radialGradient><radialGradient id="paint1_radial_5688_13" cx="0" cy="0" r="1" gradientTransform="translate(16.454 12.705)scale(17.084)" gradientUnits="userSpaceOnUse"><stop stop-color="#ffea5f"/><stop offset="1" stop-color="#ffbc47" stop-opacity="0"/></radialGradient><radialGradient id="paint3_radial_5688_13" cx="0" cy="0" r="1" gradientTransform="rotate(73.854 -5.448 18.256)scale(2.54329 1.64547)" gradientUnits="userSpaceOnUse"><stop offset=".001" stop-color="#7a4400"/><stop offset="1" stop-color="#643800"/></radialGradient><radialGradient id="paint7_radial_5688_13" cx="0" cy="0" r="1" gradientTransform="rotate(73.854 .428 26.075)scale(2.54329 1.64547)" gradientUnits="userSpaceOnUse"><stop offset=".001" stop-color="#7a4400"/><stop offset="1" stop-color="#643800"/></radialGradient></defs></svg>
