<svg xmlns="http://www.w3.org/2000/svg" width="40" height="40" fill="none" viewBox="0 0 40 40"><path fill="url(#paint0_radial_15759_16891)" d="M20 38a18 18 0 1 0 0-36 18 18 0 0 0 0 36"/><path fill="url(#paint1_radial_15759_16891)" d="M20 38a18 18 0 1 0 0-36 18 18 0 0 0 0 36" opacity=".5"/><path fill="url(#paint2_linear_15759_16891)" d="M16.04 10.67c0-.72-.78-1.17-2.13-1.17-1.13 0-3.64.63-5.36 2.85-.32.4.17.63.48.37a9.7 9.7 0 0 1 6.12-1.81c.89.09.89-.24.89-.24"/><path fill="url(#paint3_radial_15759_16891)" d="M14.12 19.42c.95 0 1.73-1.18 1.73-2.63 0-1.44-.78-2.62-1.73-2.62-.96 0-1.74 1.18-1.74 2.62s.78 2.63 1.74 2.63"/><path fill="url(#paint4_linear_15759_16891)" d="M14.12 15.06c.74 0 1.4.65 1.73 1.61-.02-1.42-.79-2.55-1.73-2.55-.95 0-1.71 1.13-1.74 2.55.34-.96 1-1.6 1.74-1.6"/><path fill="url(#paint5_linear_15759_16891)" d="M23.96 10.67c0-.72.78-1.17 2.13-1.17 1.13 0 3.64.63 5.36 2.85.32.4-.17.63-.48.37a9.7 9.7 0 0 0-6.12-1.81c-.9.09-.89-.24-.89-.24"/><path fill="#643800" d="M27.95 25.27a.5.5 0 0 0-.4.12 11.3 11.3 0 0 1-7.17 2.79h-.76c-2.25 0-5.23-.98-7.17-2.8a.5.5 0 0 0-.4-.11c-.16.03-.24.2-.16.33a9.3 9.3 0 0 0 8.02 4.63h.2a9.3 9.3 0 0 0 8.02-4.63.25.25 0 0 0-.18-.33"/><path fill="url(#paint6_radial_15759_16891)" d="M25.87 19.42c.96 0 1.73-1.18 1.73-2.63 0-1.44-.77-2.62-1.73-2.62-.95 0-1.73 1.18-1.73 2.62s.78 2.63 1.73 2.63"/><path fill="url(#paint7_linear_15759_16891)" d="M25.87 15.06c-.74 0-1.4.65-1.73 1.61.02-1.42.79-2.55 1.73-2.55.95 0 1.71 1.13 1.73 2.55-.33-.96-.99-1.6-1.73-1.6"/><path fill="url(#paint8_linear_15759_16891)" d="M27.95 25.27a.5.5 0 0 0-.4.12 11.3 11.3 0 0 1-7.17 2.79h-.76c-2.25 0-5.23-.98-7.17-2.8a.5.5 0 0 0-.4-.11c-.16.03-.24.2-.16.33l.05.08c.16-.09.33-.18.5.01a10 10 0 0 0 7.47 3.3h.2a10 10 0 0 0 7.5-3.34c.17-.2.33-.1.48 0l.03-.06c.07-.12 0-.3-.17-.32"/><defs><linearGradient id="paint2_linear_15759_16891" x1="12.24" x2="12.24" y1="11.88" y2="9.98" gradientUnits="userSpaceOnUse"><stop offset="0" stop-color="#3c2200"/><stop offset="1" stop-color="#7a4400"/></linearGradient><linearGradient id="paint4_linear_15759_16891" x1="14.12" x2="14.12" y1="14.16" y2="16.61" gradientUnits="userSpaceOnUse"><stop offset="0" stop-color="#3c2200"/><stop offset="1" stop-color="#512d00"/></linearGradient><linearGradient id="paint5_linear_15759_16891" x1="27.75" x2="27.75" y1="11.88" y2="9.98" gradientUnits="userSpaceOnUse"><stop offset="0" stop-color="#3c2200"/><stop offset="1" stop-color="#7a4400"/></linearGradient><linearGradient id="paint7_linear_15759_16891" x1="25.87" x2="25.87" y1="14.16" y2="16.61" gradientUnits="userSpaceOnUse"><stop offset="0" stop-color="#3c2200"/><stop offset="1" stop-color="#512d00"/></linearGradient><linearGradient id="paint8_linear_15759_16891" x1="20" x2="20" y1="26.54" y2="29.22" gradientUnits="userSpaceOnUse"><stop offset="0" stop-color="#3c2200"/><stop offset="1" stop-color="#512d00"/></linearGradient><radialGradient id="paint0_radial_15759_16891" cx="0" cy="0" r="1" gradientTransform="translate(16.45 12.7)scale(21.71)" gradientUnits="userSpaceOnUse"><stop stop-color="#ffe030"/><stop offset="1" stop-color="#ffb92e"/></radialGradient><radialGradient id="paint1_radial_15759_16891" cx="0" cy="0" r="1" gradientTransform="translate(16.45 12.7)scale(17.08)" gradientUnits="userSpaceOnUse"><stop stop-color="#ffea5f"/><stop offset="1" stop-color="#ffbc47" stop-opacity="0"/></radialGradient><radialGradient id="paint3_radial_15759_16891" cx="0" cy="0" r="1" gradientTransform="matrix(.7 2.44 -1.58 .46 13.6 16.87)" gradientUnits="userSpaceOnUse"><stop offset="0" stop-color="#7a4400"/><stop offset="1" stop-color="#643800"/></radialGradient><radialGradient id="paint6_radial_15759_16891" cx="0" cy="0" r="1" gradientTransform="rotate(74 1.45 25.3)scale(2.54 1.65)" gradientUnits="userSpaceOnUse"><stop offset="0" stop-color="#7a4400"/><stop offset="1" stop-color="#643800"/></radialGradient></defs></svg>
