<svg xmlns="http://www.w3.org/2000/svg" fill="none" viewBox="0 0 40 40"><path fill="#d0d5dd" stroke="#d0d5dd" stroke-linecap="round" stroke-linejoin="round" d="M18.8 5.76c.39-.78.58-1.17.84-1.3.23-.1.5-.1.72 0 .26.13.45.52.84 1.3l3.64 7.38c.11.23.17.34.25.43a1 1 0 0 0 .26.2c.11.04.24.06.5.1l8.14 1.19c.86.12 1.3.19 1.5.4q.25.29.21.68c-.04.29-.35.59-.97 1.2l-5.9 5.74c-.18.18-.27.27-.33.37q-.08.15-.1.3c-.01.13 0 .25.05.5l1.4 8.12c.14.86.21 1.28.08 1.54a.8.8 0 0 1-.59.42c-.28.05-.66-.15-1.43-.55l-7.29-3.84a2 2 0 0 0-.46-.2 1 1 0 0 0-.32 0c-.12.02-.23.08-.46.2l-7.29 3.84c-.77.4-1.15.6-1.44.55a.8.8 0 0 1-.58-.42c-.13-.26-.06-.68.09-1.54l1.39-8.11c.04-.26.06-.38.05-.5a1 1 0 0 0-.1-.3c-.06-.11-.15-.2-.34-.38l-5.9-5.75c-.61-.6-.92-.9-.96-1.19a.8.8 0 0 1 .22-.68c.2-.21.63-.28 1.48-.4l8.16-1.2c.25-.03.38-.05.49-.1q.14-.06.26-.19c.08-.09.14-.2.25-.43z"/></svg>
