<svg xmlns="http://www.w3.org/2000/svg" width="40" height="40" fill="none" viewBox="0 0 40 40"><path fill="url(#paint0_linear_15759_16949)" d="M19.9 4c-1.24 0-1.71 1-1.62 2.91.07 1.27.5 4.8-1.3 6.59-1.66 1.67-2.15 1.52-4.05 3.67s-3.48 1.71-5.7 1.52c-2.77-.24-1.83 15.21.13 14.94 1.4-.19 4.56-.57 5.07-.57.5 0 3.98 2.7 7.02 2.73 4.94.05 7.66-.83 7.66-.83l1.45-3.28.48-10.01-2.3-4.82s-3.1.51-4-.88c-.88-1.4.7-3.1.7-7.1C23.44 4.9 20.53 4 19.9 4"/><path fill="url(#paint1_linear_15759_16949)" d="m27.29 34.93-.2-.68c-.55-.06-1.26.2-2.24.19-4.67-.04-9.13-1.38-11.05-2.9-1.25-1-1.8-2.31-2.69-1.93-1.09.47-4.2 1.2-5.33-.25.32 2.47.89 4.37 1.58 4.27 1.4-.19 4.56-.57 5.07-.57.5 0 3.88 2.62 7.02 2.73 4.07.13 7.68-.57 7.68-.57z"/><path fill="url(#paint2_linear_15759_16949)" d="M9.21 19.67c1.84.5 3-.34 3.94-1.48.94-1.13 1.74-2.13 4.09-3.65s2.04-5.7 1.85-7.1c-.2-1.39-.07-3.44.8-3.44-1.23 0-1.7 1-1.6 2.91.06 1.27.48 4.8-1.3 6.59-1.67 1.67-2.16 1.52-4.06 3.67s-3.48 1.71-5.7 1.52c0 .48.15.47 1.98.98"/><path fill="url(#paint3_linear_15759_16949)" d="M22.74 15.97c-.88-1.4.7-3.1.7-7.1C23.44 4.9 20.53 4 19.9 4q-.26 0-.45.05c2.58.17 4.14 3.42 3.25 6.78-.73 2.73-1.09 4.91.1 6.2.76.83 2.27.68 3.93-.18 0 0-3.1.51-3.99-.88"/><path fill="url(#paint4_linear_15759_16949)" d="M22.92 17.39c-1.52.5-5.36 1.7-8.26 4.33-7.37 6.68 5.2 7.52 7.8 13.24.5 1.09 3.4-5.73 3.4-5.73l.94-1.58-2.71-7.22z"/><path fill="url(#paint5_linear_15759_16949)" d="M23.14 17.97c-1.52.5-7.72 4.48-7.72 6.45 0 5.66 4.3 2.87 6.62 9.55.32.93 1.46 1.7 1.46 1.7.94-.76 2.36-6.44 2.36-6.44l.94-1.58-2.71-7.22z"/><path fill="url(#paint6_linear_15759_16949)" d="m26.65 35.34 2.9-3.33.65-13.89-7.28-.73c-1.67.9-1.87 2.13-1.25 4.1.27.83-.8 1.07-.86 3.5-.05 1.67 1.05 1.68 1.05 2.18s-.55.45-.73 1.9c-.26 2.07 1.47 2.1 1.47 2.55s-.96.7-.9 2.39c.07 2.13-3.9 1.7-6.58-.24-1.1-.8-2.06-.88-2.81-.7h.12c.5 0 3.9 2.72 7.02 2.72 3.65 0 6.17-.22 7.2-.45"/><path fill="url(#paint7_linear_15759_16949)" d="M27.32 18.3c-2.25 0-3.48 2.2-2.63 3.89s-1.58 3.92-1.33 5.02.7 3.88 1.04 4.34-.57 1.5-.57 1.5l2.85.36 2.66-1.18-.1-8.04.29-5.03z"/><path fill="url(#paint8_linear_15759_16949)" d="M12.93 17.17c-1.23 1.4-2.33 1.7-3.56 1.7.36.56.6 1.19.58 1.8-.07 1.6.28 3.57.55 1.52.2-1.57 1.27-3.5 2.54-5.14z"/><path fill="url(#paint9_linear_15759_16949)" d="M29.02 16.8c-2.66-.11-7.43-.26-7.54 2.52-.08 2.02 1.35 2.69 3.57 2.77l4.24.16c.91.04 3.8.02 3.82-2.42.04-3.05-4.1-3.04-4.1-3.04"/><path fill="url(#paint10_linear_15759_16949)" d="M24.65 26.86c-.71-.02-2.83.5-3.03 1.85-.15 1.06.39 2.43 2.23 2.75 2.33.4 6.21.62 7.67.08.64-.25 1.2-.93 1.24-1.95a2.4 2.4 0 0 0-2.4-2.47c-1.66-.05-2.52-.02-3.47-.13-1.14-.14-1.67-.12-2.24-.13"/><path fill="url(#paint11_linear_15759_16949)" d="M23.9 31.55c-.8 0-1.8.72-1.8 1.9 0 1.19.31 2.07 2.04 2.4 1.74.33 4.51.05 5.56-.28.81-.26 1.11-1.02 1.11-2.28s-.78-1.48-1.63-1.48c-.86 0-1.9.15-2.49.12-1.65-.08-1.98-.38-2.78-.38"/><path fill="url(#paint12_linear_15759_16949)" d="M28.8 17.35c-2.33-.09-6.5-.22-6.58 1.98-.06 1.6 1.19 2.13 3.12 2.2s7.02.17 7.04-1.76c.02-2.4-3.59-2.42-3.59-2.42"/><path fill="url(#paint13_linear_15759_16949)" d="M24.86 27.42c-.62-.01-2.35.13-2.52 1.42-.11.87.34 1.98 1.94 2.25 2.03.34 5.41.52 6.68.07.56-.2 1.05-.75 1.08-1.6.02-.83-.76-1.87-2.2-1.91s-2.22.1-3.04 0c-1-.11-1.44-.21-1.94-.23"/><path fill="url(#paint14_linear_15759_16949)" d="M24.25 31.99c-.7 0-1.56.57-1.56 1.53 0 .95.27 1.66 1.77 1.93 1.5.26 3.9.04 4.8-.23.7-.21.97-.82.97-1.84 0-1.01-.68-1.19-1.42-1.19s-1.64.13-2.15.1c-1.43-.07-1.71-.3-2.4-.3"/><path fill="url(#paint15_linear_15759_16949)" d="M23.83 19.33c.05-1.51 1.26-2.24 2.8-2.58-2.45.06-5.07.52-5.15 2.57-.08 2.02 1.35 2.69 3.57 2.77q.36 0 .69.03c-1.24-.37-1.97-1.19-1.91-2.79"/><path fill="url(#paint16_linear_15759_16949)" d="M24.04 17.03c-1.42.3-2.51.98-2.56 2.3-.06 1.67.92 2.41 2.52 2.66-3.25-1.3-2.09-4.5.04-4.96"/><path fill="url(#paint17_radial_15759_16949)" d="M20.26 32.98c-.38.86-2.16.92-3.99.12s-3-2.14-2.63-3 2.16-.91 3.99-.12c1.83.8 3 2.14 2.63 3"/><path fill="url(#paint18_radial_15759_16949)" d="M31 19.74c-.01 1.17-1.57 1.72-3.27 1.82-1.4.09-2.94-.9-2.9-2.04s.24-2.15 3.14-2.04c1.7.05 3.06 1.12 3.04 2.26"/><path fill="url(#paint19_radial_15759_16949)" d="M31.32 29.98c-.01 1.61-1.79 1.3-3.49 1.42-2.16.14-3.6-.53-3.6-1.67s.83-1.97 3.73-1.98c1.7 0 3.37.16 3.36 2.23"/><path fill="url(#paint20_radial_15759_16949)" d="M29.76 34.05c-.01 1.37-1.62 1.56-3.15 1.56s-3.18-.8-3.18-1.78c0-.97.73-1.68 3.32-1.68 1.53 0 3.02.13 3 1.9"/><path fill="url(#paint21_linear_15759_16949)" d="M23.6 29.04c.25-1.84 1.66-1.73 3.27-1.92-1.86-.14-2.64-.16-2.64-.16a3 3 0 0 0-.57 0c-.6.14-1.29.41-1.7.93a2 2 0 0 0-.34.82c-.13 1.06.39 2.43 2.23 2.75l.85.13.47.06.13.01c-1.01-.48-1.87-1.27-1.7-2.62"/><path fill="url(#paint22_linear_15759_16949)" d="m24.05 26.95-.39.01c-.6.14-1.3.42-1.7.94q-.2.29-.32.7 0 .05-.02.11c-.18 1.05.34 2.28 1.94 2.69-2.74-1.52-1.57-4.45.5-4.45"/><path fill="url(#paint23_linear_15759_16949)" d="M25.65 31.83c-.8-.12-1.14-.28-1.74-.28-.8 0-1.8.71-1.8 1.9q-.01.65.17 1.16.2.42.6.76.44.32 1.26.48.57.1 1.23.13c-.84-.49-2.28-.75-1.98-2.4.33-1.82 1.42-1.57 2.26-1.75"/><path fill="url(#paint24_linear_15759_16949)" d="M23.87 31.55c-.8.02-1.77.73-1.77 1.9 0 1.09.26 1.92 1.64 2.3-2.15-1.38-1.46-3.7.13-4.2"/><path fill="url(#paint25_linear_15759_16949)" d="M33.11 19.83q0-.4-.08-.75c.21.95-.63 1.9-2.88 2.36-1.49.3-5.44.68-8.18-.4.6.71 1.68 1 3.08 1.05l4.24.16c.91.04 3.8.02 3.82-2.42"/><path fill="url(#paint26_linear_15759_16949)" d="M32.76 29.52c0-1.02-.77-2.35-2.4-2.4-1.66-.05-2.52-.02-3.47-.13-1.14-.14-1.67-.12-2.24-.13-.43-.02-1.5.11-2.21.56.8.29 2.13.7 3.99.59 4.46-.29 5.73.25 6.33 1.51"/><path fill="url(#paint27_linear_15759_16949)" d="M23.7 22.25c-.96-.02-2.46.54-2.5 2.51s1.68 2.44 2.44 2.46c.76.01 3.42.2 6.69.26s3.71-1.7 3.73-2.62-.56-2.58-2.53-2.62c-5.7-.12-7.84.01-7.84.01"/><path fill="url(#paint28_linear_15759_16949)" d="M24.2 22.82c-.82-.01-2.13.41-2.16 1.93-.03 1.53 1.47 1.9 2.13 1.9.66.02 2.97.16 5.81.22 2.85.06 3.23-1.3 3.24-2.01s-.08-2-1.8-2.03c-4.95-.1-7.22 0-7.22 0"/><path fill="url(#paint29_linear_15759_16949)" d="M23.23 24.57c.1-2.02 1.51-2.03 3.1-2.38-1.86.01-2.64.06-2.64.06-.95-.02-2.45.54-2.5 2.51-.03 1.97 1.7 2.44 2.45 2.46q.44 0 1.5.06c-1.05-.43-1.98-1.22-1.9-2.7"/><path fill="url(#paint30_radial_15759_16949)" d="M32.4 24.78c.06 1.61-1.73 1.92-3.43 2s-3.6-.78-3.66-1.92c-.05-1.14.73-2 3.62-2.15 1.7-.08 3.38 0 3.46 2.07"/><path fill="url(#paint31_linear_15759_16949)" d="M23.52 22.25c-.95.05-2.29.66-2.32 2.51-.04 1.87 1.52 2.4 2.32 2.45-3.12-1.26-2.1-4.77 0-4.96"/><path fill="url(#paint32_linear_15759_16949)" d="M34.06 24.67c-.41 2.91-8.12 2.38-12.29 1.75.57.6 1.4.79 1.87.8.76.01 3.42.2 6.69.26s3.71-1.7 3.73-2.62z"/><path fill="url(#paint33_linear_15759_16949)" d="M30.2 31.16c-1.5.07-5.45.56-8.33-.99.33.6.95 1.1 1.98 1.29 2.33.4 6.21.62 7.66.08.65-.25 1.22-.92 1.25-1.95-.1.9-.95 1.5-2.56 1.57"/><path fill="url(#paint34_linear_15759_16949)" d="M30.7 34.4c-.98.74-2.67 1.18-5.1.77-1.52-.25-2.55-.34-3.23-.36.27.5.8.85 1.77 1.04 1.74.33 4.51.05 5.56-.28q.79-.26 1-1.17"/><path fill="url(#paint35_linear_15759_16949)" d="M22.42 32.38c1.81-.65 2.7.32 4.63.32 2 0 2.97-.8 3.68-.04-.22-.7-.87-.85-1.55-.85-.86 0-1.9.15-2.49.12-1.65-.08-1.98-.38-2.78-.38-.52 0-1.13.3-1.49.83"/><path fill="url(#paint36_linear_15759_16949)" d="M7.37 33.63c1.39-.19 4.55-.57 5.06-.57-4.6-3.28-2.55-10.26-.86-13.8q.36-.73.47-1.24c-1.53 1.17-2.94.83-4.8.67-2.78-.24-1.84 15.21.13 14.94"/><path fill="url(#paint37_linear_15759_16949)" d="M10.26 30.46c-.48-.63-.06.73.32 1.71.32.84-2.16.34-4.05.55.24.61.53.96.84.91 1.39-.19 4.55-.57 5.06-.57-.72-.6-1.7-1.96-2.17-2.6"/><path fill="url(#paint38_linear_15759_16949)" d="M12.43 33.07c-.4-.34-.87-.9-1.3-1.45 0 0-2.3 1.18-4.77.62.28.9.62 1.45 1 1.4a95 95 0 0 1 5.07-.57"/><path fill="url(#paint39_radial_15759_16949)" d="M21.16 9.94c-.9.2-1.64-1.05-2.05-2.5-.34-1.19.12-2.7 1-2.88.9-.17 1.71-.17 2.2 2.35.29 1.48-.27 2.84-1.15 3.03"/><path fill="#804b24" d="M23.87 31.55c-.5.06-.94.32-1.25.69s-.46.85-.43 1.33c0 .5.08.99.35 1.38.28.4.74.64 1.2.8-.48-.1-.98-.3-1.3-.72s-.4-.96-.42-1.45c-.02-.51.14-1.05.5-1.43.35-.37.85-.6 1.35-.6M23.08 27.14q-.5.21-.88.57a2 2 0 0 0-.48.9c-.12.6-.02 1.25.33 1.75s.91.84 1.51 1.04a2.6 2.6 0 0 1-1.62-.96q-.3-.4-.4-.9-.08-.48.03-.96.14-.56.56-.94.42-.35.95-.5M23.52 22.25a2.6 2.6 0 0 0-1.56.72c-.4.41-.63.98-.66 1.56-.06.57.03 1.17.36 1.65.32.47.85.8 1.42.96-.58-.1-1.16-.4-1.53-.89a2.5 2.5 0 0 1-.42-1.74c.05-.6.29-1.21.74-1.63a2.5 2.5 0 0 1 1.65-.63M24.04 17.03c-.63.17-1.26.4-1.75.82-.5.4-.77 1.03-.73 1.67 0 .63.2 1.28.69 1.7.47.43 1.11.64 1.75.77a3.4 3.4 0 0 1-1.84-.67 2.3 2.3 0 0 1-.76-1.8 2.1 2.1 0 0 1 .81-1.77c.54-.41 1.19-.6 1.83-.72"/><path fill="#804b24" d="M21.87 30.17a2.8 2.8 0 0 0 2.09 1.25q1.25.2 2.51.27 1.28.12 2.54.11.63 0 1.26-.05c.42-.04.84-.08 1.25-.21-.8.3-1.67.34-2.51.37q-1.28.03-2.55-.05-1.26-.11-2.52-.33-.65-.1-1.2-.43a2.3 2.3 0 0 1-.87-.93M21.77 26.42q.5.48 1.18.64c.43.13.89.1 1.34.13l2.73.08 2.73.13c.9.06 1.83.07 2.7-.23-.85.36-1.8.39-2.7.34l-2.73-.08-2.73-.13c-.45-.03-.92-.01-1.36-.16a2.6 2.6 0 0 1-1.16-.72M31.53 22.24q-.98.01-1.96.01H27.6l-1.96.03q-.97-.01-1.95.04c-.65-.02-1.32.2-1.78.66-.47.46-.7 1.12-.72 1.78q0-.5.14-.98.16-.49.52-.86a2.6 2.6 0 0 1 1.83-.73q1.95-.1 3.92-.06 1.95.01 3.92.1"/><defs><linearGradient id="paint0_linear_15759_16949" x1="26.83" x2="17.31" y1="19.63" y2="20.01" gradientUnits="userSpaceOnUse"><stop offset="0" stop-color="#ffcb4b"/><stop offset="1" stop-color="#ffd748"/></linearGradient><linearGradient id="paint1_linear_15759_16949" x1="16.56" x2="16.37" y1="32.83" y2="27.83" gradientUnits="userSpaceOnUse"><stop offset="0" stop-color="#ffcb4b"/><stop offset="1" stop-color="#ffd748"/></linearGradient><linearGradient id="paint2_linear_15759_16949" x1="15.34" x2="22.51" y1="13.98" y2="24.24" gradientUnits="userSpaceOnUse"><stop offset="0" stop-color="#ffcb4b"/><stop offset="1" stop-color="#ffd748"/></linearGradient><linearGradient id="paint3_linear_15759_16949" x1="10.15" x2="28.52" y1="9.9" y2="11.27" gradientUnits="userSpaceOnUse"><stop offset=".31" stop-color="#ffbc47" stop-opacity="0"/><stop offset="1" stop-color="#ff8900"/></linearGradient><linearGradient id="paint4_linear_15759_16949" x1="9.8" x2="33.92" y1="26.23" y2="26.23" gradientUnits="userSpaceOnUse"><stop stop-color="#ffbc47" stop-opacity="0"/><stop offset="1" stop-color="#ffa754"/></linearGradient><linearGradient id="paint5_linear_15759_16949" x1="5.91" x2="53.56" y1="26.27" y2="27.79" gradientUnits="userSpaceOnUse"><stop stop-color="#ffbc47" stop-opacity="0"/><stop offset="1" stop-color="#c86f34"/></linearGradient><linearGradient id="paint6_linear_15759_16949" x1="13.48" x2="21.36" y1="32.5" y2="28.22" gradientUnits="userSpaceOnUse"><stop stop-color="#ffbc47" stop-opacity="0"/><stop offset="1" stop-color="#c86f34"/></linearGradient><linearGradient id="paint7_linear_15759_16949" x1="22.51" x2="29.08" y1="26.43" y2="25.57" gradientUnits="userSpaceOnUse"><stop stop-color="#643800" stop-opacity="0"/><stop offset="1" stop-color="#643800"/></linearGradient><linearGradient id="paint8_linear_15759_16949" x1="10.84" x2="12.27" y1="11.92" y2="35.53" gradientUnits="userSpaceOnUse"><stop stop-color="#ffbc47" stop-opacity="0"/><stop offset="1" stop-color="#ffa754"/></linearGradient><linearGradient id="paint9_linear_15759_16949" x1="32.66" x2="23.34" y1="19.5" y2="19.5" gradientUnits="userSpaceOnUse"><stop offset="0" stop-color="#ffbc47"/><stop offset="1" stop-color="#ffd748"/></linearGradient><linearGradient id="paint10_linear_15759_16949" x1="32.66" x2="23.33" y1="29.36" y2="29.36" gradientUnits="userSpaceOnUse"><stop offset="0" stop-color="#ffbc47"/><stop offset="1" stop-color="#ffd748"/></linearGradient><linearGradient id="paint11_linear_15759_16949" x1="32.66" x2="23.34" y1="33.78" y2="33.78" gradientUnits="userSpaceOnUse"><stop offset="0" stop-color="#ffbc47"/><stop offset="1" stop-color="#ffd748"/></linearGradient><linearGradient id="paint12_linear_15759_16949" x1="22.08" x2="26.94" y1="19.55" y2="19.44" gradientUnits="userSpaceOnUse"><stop offset="0" stop-color="#ffcb4b"/><stop offset="1" stop-color="#ffd748"/></linearGradient><linearGradient id="paint13_linear_15759_16949" x1="30.58" x2="25.62" y1="29.42" y2="29.42" gradientUnits="userSpaceOnUse"><stop offset="0" stop-color="#ffcb4b"/><stop offset="1" stop-color="#ffd748"/></linearGradient><linearGradient id="paint14_linear_15759_16949" x1="30.58" x2="25.62" y1="33.78" y2="33.78" gradientUnits="userSpaceOnUse"><stop offset="0" stop-color="#ffcb4b"/><stop offset="1" stop-color="#ffd748"/></linearGradient><linearGradient id="paint15_linear_15759_16949" x1="24.53" x2="21.89" y1="19.44" y2="19.44" gradientUnits="userSpaceOnUse"><stop offset="0" stop-color="#fba23b" stop-opacity="0"/><stop offset="1" stop-color="#fba23b"/></linearGradient><linearGradient id="paint16_linear_15759_16949" x1="24.06" x2="21.02" y1="19.51" y2="19.51" gradientUnits="userSpaceOnUse"><stop offset="0" stop-color="#ffbc47"/><stop offset="1" stop-color="#e89043"/></linearGradient><linearGradient id="paint21_linear_15759_16949" x1="24.85" x2="21.02" y1="29.31" y2="29.31" gradientUnits="userSpaceOnUse"><stop offset="0" stop-color="#fba23b" stop-opacity="0"/><stop offset="1" stop-color="#fba23b"/></linearGradient><linearGradient id="paint22_linear_15759_16949" x1="24.03" x2="21.97" y1="29.17" y2="29.17" gradientUnits="userSpaceOnUse"><stop offset="0" stop-color="#ffbc47"/><stop offset="1" stop-color="#fba23b"/></linearGradient><linearGradient id="paint23_linear_15759_16949" x1="24.71" x2="20.23" y1="33.8" y2="32.98" gradientUnits="userSpaceOnUse"><stop offset="0" stop-color="#fba23b" stop-opacity="0"/><stop offset="1" stop-color="#fba23b"/></linearGradient><linearGradient id="paint24_linear_15759_16949" x1="24.25" x2="22.35" y1="33.66" y2="33.66" gradientUnits="userSpaceOnUse"><stop offset="0" stop-color="#ffbc47"/><stop offset="1" stop-color="#fba23b"/></linearGradient><linearGradient id="paint25_linear_15759_16949" x1="27.26" x2="28.47" y1="18.92" y2="24.74" gradientUnits="userSpaceOnUse"><stop stop-color="#ffbc47" stop-opacity="0"/><stop offset="1" stop-color="#c86f34"/></linearGradient><linearGradient id="paint26_linear_15759_16949" x1="28.18" x2="26.87" y1="30.43" y2="25.69" gradientUnits="userSpaceOnUse"><stop stop-color="#ffbc47" stop-opacity="0"/><stop offset="1" stop-color="#c86f34"/></linearGradient><linearGradient id="paint27_linear_15759_16949" x1="32.66" x2="23.34" y1="24.83" y2="24.83" gradientUnits="userSpaceOnUse"><stop offset="0" stop-color="#ffbc47"/><stop offset="1" stop-color="#ffd748"/></linearGradient><linearGradient id="paint28_linear_15759_16949" x1="22.96" x2="30.11" y1="24.57" y2="24.84" gradientUnits="userSpaceOnUse"><stop offset="0" stop-color="#ffcb4b"/><stop offset=".74" stop-color="#ffd748"/><stop offset="1" stop-color="#ffcb4b"/></linearGradient><linearGradient id="paint29_linear_15759_16949" x1="25.75" x2="20.41" y1="24.74" y2="24.74" gradientUnits="userSpaceOnUse"><stop offset="0" stop-color="#fba23b" stop-opacity="0"/><stop offset="1" stop-color="#fba23b"/></linearGradient><linearGradient id="paint31_linear_15759_16949" x1="23.27" x2="21.58" y1="24.73" y2="24.73" gradientUnits="userSpaceOnUse"><stop offset="0" stop-color="#ffbc47"/><stop offset="1" stop-color="#fba23b"/></linearGradient><linearGradient id="paint32_linear_15759_16949" x1="27.71" x2="28.72" y1="24.22" y2="30.66" gradientUnits="userSpaceOnUse"><stop stop-color="#ffbc47" stop-opacity="0"/><stop offset="1" stop-color="#c86f34"/></linearGradient><linearGradient id="paint33_linear_15759_16949" x1="27" x2="29.6" y1="29.2" y2="34.84" gradientUnits="userSpaceOnUse"><stop stop-color="#ffbc47" stop-opacity="0"/><stop offset="1" stop-color="#c86f34"/></linearGradient><linearGradient id="paint34_linear_15759_16949" x1="26.49" x2="26.87" y1="34.15" y2="37.71" gradientUnits="userSpaceOnUse"><stop stop-color="#ffbc47" stop-opacity="0"/><stop offset="1" stop-color="#c86f34"/></linearGradient><linearGradient id="paint35_linear_15759_16949" x1="26.58" x2="26.58" y1="33.61" y2="31.03" gradientUnits="userSpaceOnUse"><stop stop-color="#ffbc47" stop-opacity="0"/><stop offset="1" stop-color="#c86f34"/></linearGradient><linearGradient id="paint36_linear_15759_16949" x1="9.18" x2="1.11" y1="26.49" y2="38.69" gradientUnits="userSpaceOnUse"><stop stop-color="#c86f34" stop-opacity="0"/><stop offset="1" stop-color="#c86f34"/></linearGradient><linearGradient id="paint37_linear_15759_16949" x1="8.65" x2="9.98" y1="29.19" y2="35.13" gradientUnits="userSpaceOnUse"><stop stop-color="#ffbc47" stop-opacity="0"/><stop offset="1" stop-color="#c86f34"/></linearGradient><linearGradient id="paint38_linear_15759_16949" x1="9.45" x2="9.26" y1="30.3" y2="37.57" gradientUnits="userSpaceOnUse"><stop stop-color="#ffbc47" stop-opacity="0"/><stop offset="1" stop-color="#c86f34"/></linearGradient><radialGradient id="paint17_radial_15759_16949" cx="0" cy="0" r="1" gradientTransform="rotate(24 -65.8 55.54)scale(3.7 1.72)" gradientUnits="userSpaceOnUse"><stop stop-color="#fbe07a"/><stop offset="1" stop-color="#ffd748" stop-opacity="0"/></radialGradient><radialGradient id="paint18_radial_15759_16949" cx="0" cy="0" r="1" gradientTransform="matrix(3.17 .11 -.07 2.08 27.92 19.53)" gradientUnits="userSpaceOnUse"><stop stop-color="#fbe07a"/><stop offset="1" stop-color="#ffd748"/></radialGradient><radialGradient id="paint19_radial_15759_16949" cx="0" cy="0" r="1" gradientTransform="matrix(3.4 0 0 1.84 27.77 29.75)" gradientUnits="userSpaceOnUse"><stop stop-color="#fbe07a"/><stop offset="1" stop-color="#ffd748" stop-opacity="0"/></radialGradient><radialGradient id="paint20_radial_15759_16949" cx="0" cy="0" r="1" gradientTransform="matrix(3.12 0 0 1.95 26.6 33.88)" gradientUnits="userSpaceOnUse"><stop stop-color="#fbe07a"/><stop offset="1" stop-color="#ffd748" stop-opacity="0"/></radialGradient><radialGradient id="paint30_radial_15759_16949" cx="0" cy="0" r="1" gradientTransform="matrix(3.49 -.17 .1 2.29 28.85 24.75)" gradientUnits="userSpaceOnUse"><stop stop-color="#fbe07a"/><stop offset="1" stop-color="#ffd748" stop-opacity="0"/></radialGradient><radialGradient id="paint39_radial_15759_16949" cx="0" cy="0" r="1" gradientTransform="rotate(79 5.98 16.17)scale(3.35 1.96)" gradientUnits="userSpaceOnUse"><stop stop-color="#fbe07a"/><stop offset="1" stop-color="#ffd748" stop-opacity="0"/></radialGradient></defs></svg>
