<svg xmlns="http://www.w3.org/2000/svg" width="40" height="40" fill="none" viewBox="0 0 40 40"><path fill="url(#paint0_linear_15759_16997)" d="M20.1 36c1.24 0 1.71-1 1.62-2.91-.07-1.27-.5-4.8 1.3-6.59 1.66-1.67 2.15-1.52 4.05-3.67s3.48-1.71 5.7-1.52c2.77.24 1.83-15.21-.13-14.94-1.4.19-4.56.57-5.07.57-.5 0-3.98-2.7-7.02-2.73-4.94-.05-7.66.83-7.66.83l-1.45 3.28-.48 10 2.3 4.82s3.1-.5 4 .9c.88 1.38-.7 3.1-.7 7.08 0 4 2.91 4.88 3.54 4.88"/><path fill="url(#paint1_linear_15759_16997)" d="m12.72 5.07.18.68c.56.06 1.28-.2 2.25-.19 4.67.04 9.13 1.38 11.05 2.9 1.25.99 1.8 2.31 2.69 1.93 1.09-.47 4.2-1.2 5.33.25-.32-2.47-.89-4.37-1.58-4.27-1.4.19-4.56.57-5.07.57-.5 0-3.88-2.62-7.02-2.73-4.07-.13-7.68.57-7.68.57z"/><path fill="url(#paint2_linear_15759_16997)" d="M30.79 20.33c-1.84-.5-3 .34-3.94 1.48-.94 1.13-1.74 2.13-4.09 3.65s-2.04 5.7-1.85 7.1c.2 1.39.07 3.44-.8 3.44 1.23 0 1.7-1 1.6-2.91-.06-1.27-.48-4.8 1.3-6.59 1.67-1.67 2.16-1.52 4.06-3.67s3.48-1.71 5.7-1.52c0-.48-.15-.47-1.98-.98"/><path fill="url(#paint3_linear_15759_16997)" d="M17.26 24.03c.88 1.4-.7 3.1-.7 7.1 0 3.98 2.91 4.87 3.54 4.87q.26 0 .45-.05c-2.58-.17-4.14-3.42-3.25-6.78.73-2.73 1.09-4.91-.1-6.2-.76-.83-2.27-.68-3.93.18 0 0 3.1-.51 3.99.88"/><path fill="url(#paint4_linear_15759_16997)" d="M17.08 22.61c1.52-.5 5.36-1.7 8.26-4.33 7.37-6.69-5.2-7.52-7.8-13.24-.5-1.09-3.4 5.73-3.4 5.73l-.94 1.58 2.71 7.22z"/><path fill="url(#paint5_linear_15759_16997)" d="M16.86 22.03c1.52-.5 7.72-4.48 7.72-6.45 0-5.66-4.3-2.87-6.62-9.55-.32-.93-1.45-1.7-1.45-1.7-.95.76-2.37 6.44-2.37 6.44l-.94 1.58 2.71 7.22z"/><path fill="url(#paint6_linear_15759_16997)" d="M13.35 4.66 10.45 8 9.8 21.88l7.28.73c1.67-.9 1.87-2.13 1.25-4.1-.27-.84.8-1.07.86-3.5.05-1.67-1.05-1.68-1.05-2.18s.55-.45.73-1.9c.26-2.07-1.47-2.1-1.47-2.55s.96-.7.9-2.39c-.07-2.14 3.9-1.7 6.58.24 1.1.8 2.06.88 2.81.7h-.12c-.5 0-3.9-2.72-7.02-2.72-3.65 0-6.17.22-7.2.45"/><path fill="url(#paint7_linear_15759_16997)" d="M12.68 21.7c2.25 0 3.49-2.2 2.63-3.89-.85-1.69 1.58-3.92 1.33-5.02s-.7-3.88-1.04-4.34c-.35-.47.57-1.51.57-1.51l-2.85-.35-2.66 1.17.1 8.05-.29 5.03z"/><path fill="url(#paint8_linear_15759_16997)" d="M27.07 22.83c1.23-1.4 2.33-1.7 3.56-1.7-.36-.56-.6-1.19-.58-1.8.07-1.6-.28-3.57-.55-1.52-.2 1.57-1.27 3.5-2.54 5.14z"/><path fill="url(#paint9_linear_15759_16997)" d="M10.98 23.2c2.66.11 7.43.26 7.54-2.52.08-2.02-1.35-2.69-3.57-2.77l-4.23-.16c-.92-.04-3.8-.02-3.83 2.42-.04 3.05 4.1 3.04 4.1 3.04"/><path fill="url(#paint10_linear_15759_16997)" d="M15.35 13.14c.71.02 2.83-.51 3.03-1.85.15-1.06-.39-2.43-2.23-2.75-2.33-.4-6.21-.62-7.66-.08-.65.25-1.22.92-1.25 1.95a2.4 2.4 0 0 0 2.4 2.47c1.66.05 2.52.02 3.47.13 1.14.14 1.67.12 2.24.13"/><path fill="url(#paint11_linear_15759_16997)" d="M16.1 8.45c.8 0 1.8-.72 1.8-1.9 0-1.19-.31-2.07-2.04-2.4a15 15 0 0 0-5.56.28C9.5 4.7 9.2 5.45 9.2 6.71s.78 1.48 1.63 1.48c.86 0 1.9-.15 2.49-.12 1.65.08 1.98.38 2.78.38"/><path fill="url(#paint12_linear_15759_16997)" d="M11.2 22.65c2.33.08 6.5.22 6.58-1.98.06-1.6-1.19-2.13-3.12-2.2s-7.02-.17-7.04 1.76c-.02 2.4 3.59 2.42 3.59 2.42"/><path fill="url(#paint13_linear_15759_16997)" d="M15.14 12.58c.62.01 2.35-.13 2.52-1.42.11-.87-.34-1.98-1.94-2.25-2.03-.34-5.41-.52-6.68-.07-.56.2-1.05.75-1.08 1.6-.02.83.76 1.87 2.2 1.91s2.22-.1 3.04 0c1 .11 1.44.21 1.94.23"/><path fill="url(#paint14_linear_15759_16997)" d="M15.75 8.01c.7 0 1.56-.57 1.56-1.53 0-.95-.27-1.66-1.77-1.93a14 14 0 0 0-4.8.23c-.7.21-.97.82-.97 1.84 0 1.01.68 1.19 1.42 1.19s1.64-.13 2.15-.1c1.43.07 1.71.3 2.4.3"/><path fill="url(#paint15_linear_15759_16997)" d="M16.17 20.67c-.05 1.51-1.26 2.24-2.8 2.57 2.45-.05 5.07-.5 5.15-2.56.08-2.02-1.35-2.69-3.57-2.77q-.36 0-.69-.03c1.25.37 1.97 1.19 1.91 2.79"/><path fill="url(#paint16_linear_15759_16997)" d="M15.97 22.97c1.41-.31 2.5-.98 2.55-2.3.06-1.67-.91-2.41-2.52-2.66 3.26 1.3 2.09 4.5-.03 4.96"/><path fill="url(#paint17_radial_15759_16997)" d="M22.18 7.88c.25-.91 2.01-1.21 3.93-.67s3.27 1.7 3.02 2.6-2.02 1.21-3.94.67c-1.91-.53-3.27-1.7-3.01-2.6"/><path fill="url(#paint18_radial_15759_16997)" d="M9 20.26c.01-1.17 1.57-1.72 3.27-1.82 1.4-.09 2.94.9 2.9 2.04s-.24 2.14-3.14 2.04c-1.7-.05-3.05-1.12-3.04-2.26"/><path fill="url(#paint19_radial_15759_16997)" d="M8.68 10.02c.01-1.61 1.79-1.3 3.49-1.42 2.16-.14 3.6.53 3.6 1.67s-.83 1.97-3.72 1.97c-1.71 0-3.38-.15-3.37-2.22"/><path fill="url(#paint20_radial_15759_16997)" d="M10.24 5.95c.01-1.37 1.62-1.56 3.15-1.56s3.18.8 3.18 1.78c0 .97-.73 1.68-3.32 1.68-1.52 0-3.02-.13-3-1.9"/><path fill="url(#paint21_linear_15759_16997)" d="M16.4 10.96c-.25 1.84-1.66 1.73-3.27 1.92 1.86.14 2.64.16 2.64.16q.26.03.57 0c.6-.14 1.29-.41 1.7-.93a2 2 0 0 0 .34-.82c.13-1.06-.39-2.43-2.23-2.75l-.85-.13-.47-.06-.13-.01c1.01.48 1.87 1.27 1.7 2.62"/><path fill="url(#paint22_linear_15759_16997)" d="m15.95 13.05.39-.01c.6-.14 1.3-.42 1.7-.94q.2-.29.32-.7 0-.05.02-.11c.18-1.05-.34-2.28-1.94-2.69 2.74 1.52 1.57 4.45-.5 4.45"/><path fill="url(#paint23_linear_15759_16997)" d="M14.35 8.17c.81.12 1.14.28 1.74.28.8 0 1.8-.71 1.8-1.9q.02-.65-.17-1.16a2 2 0 0 0-.6-.76q-.44-.32-1.26-.48a9 9 0 0 0-1.23-.13c.85.49 2.28.75 1.98 2.4-.33 1.82-1.42 1.57-2.26 1.75"/><path fill="url(#paint24_linear_15759_16997)" d="M16.13 8.45c.8-.02 1.77-.73 1.77-1.9 0-1.09-.26-1.92-1.64-2.3 2.15 1.38 1.46 3.7-.13 4.2"/><path fill="url(#paint25_linear_15759_16997)" d="M6.89 20.17q0 .4.08.75c-.21-.95.64-1.9 2.88-2.36 1.5-.3 5.44-.68 8.18.4-.59-.71-1.68-1-3.08-1.05l-4.23-.16c-.92-.04-3.8-.02-3.83 2.42"/><path fill="url(#paint26_linear_15759_16997)" d="M7.24 10.48c0 1.02.77 2.35 2.4 2.4 1.66.05 2.52.02 3.47.13 1.14.14 1.67.12 2.24.13.43.02 1.5-.11 2.22-.56a10 10 0 0 0-4-.59c-4.46.29-5.73-.25-6.33-1.51"/><path fill="url(#paint27_linear_15759_16997)" d="M16.3 17.75c.96.02 2.46-.54 2.5-2.51s-1.68-2.44-2.44-2.46c-.76-.01-3.42-.2-6.69-.26s-3.71 1.7-3.73 2.62.56 2.58 2.53 2.62c5.7.12 7.84-.01 7.84-.01"/><path fill="url(#paint28_linear_15759_16997)" d="M15.8 17.18c.82.01 2.13-.41 2.16-1.93s-1.47-1.9-2.13-1.9c-.66-.02-2.97-.16-5.81-.22-2.85-.06-3.23 1.3-3.24 2.01s.08 2 1.8 2.03c4.95.1 7.22 0 7.22 0"/><path fill="url(#paint29_linear_15759_16997)" d="M16.77 15.43c-.1 2.02-1.51 2.03-3.1 2.38a58 58 0 0 0 2.64-.06c.95.02 2.45-.54 2.5-2.51.03-1.97-1.7-2.44-2.45-2.46-.27 0-.8-.03-1.5-.06 1.05.43 1.98 1.22 1.9 2.7"/><path fill="url(#paint30_radial_15759_16997)" d="M7.6 15.22c-.06-1.61 1.73-1.92 3.44-2 1.7-.08 3.6.78 3.65 1.92s-.73 2-3.62 2.15c-1.7.08-3.38 0-3.46-2.07"/><path fill="url(#paint31_linear_15759_16997)" d="M16.49 17.75a2.37 2.37 0 0 0 2.31-2.51c.04-1.87-1.51-2.4-2.32-2.45 3.12 1.26 2.1 4.77 0 4.96"/><path fill="url(#paint32_linear_15759_16997)" d="M5.94 15.33c.41-2.91 8.12-2.38 12.29-1.75-.57-.6-1.4-.79-1.87-.8-.76-.01-3.42-.2-6.69-.26s-3.71 1.7-3.73 2.62z"/><path fill="url(#paint33_linear_15759_16997)" d="M9.8 8.84c1.5-.07 5.45-.56 8.33.99-.33-.6-.95-1.1-1.98-1.29-2.33-.4-6.21-.62-7.66-.08-.65.25-1.22.92-1.25 1.95.1-.9.95-1.5 2.56-1.57"/><path fill="url(#paint34_linear_15759_16997)" d="M9.3 5.6c.98-.75 2.67-1.18 5.1-.77 1.52.25 2.55.34 3.23.36-.27-.5-.8-.85-1.77-1.04a15 15 0 0 0-5.56.28q-.78.25-1 1.17"/><path fill="url(#paint35_linear_15759_16997)" d="M17.58 7.62c-1.81.65-2.7-.32-4.63-.32-2 0-2.97.8-3.68.04.22.7.87.85 1.55.85.86 0 1.9-.15 2.49-.12 1.65.08 1.98.38 2.78.38.53 0 1.13-.3 1.49-.83"/><path fill="url(#paint36_linear_15759_16997)" d="M32.64 6.37c-1.4.19-4.56.57-5.07.57 4.6 3.28 2.55 10.26.86 13.79q-.35.74-.47 1.25c1.53-1.17 2.94-.83 4.8-.67 2.78.24 1.84-15.21-.12-14.94"/><path fill="url(#paint37_linear_15759_16997)" d="M27.57 6.93c.4.34.87.9 1.3 1.45 0 0 2.3-1.18 4.77-.62-.28-.9-.62-1.45-1-1.4-1.4.2-4.56.57-5.07.57"/><path fill="url(#paint38_radial_15759_16997)" d="M18.63 30.2c.9-.2 1.63 1.04 2.04 2.5.34 1.19-.12 2.7-1 2.87-.89.17-1.7.18-2.2-2.34-.28-1.48.28-2.85 1.16-3.04"/><path fill="url(#paint39_linear_15759_16997)" d="M13.27 23.15s3.1-.51 3.99.88c.88 1.4-.7 3.1-.7 7.1 0 3.98 2.91 4.87 3.54 4.87 1.24 0 1.71-1 1.62-2.91-.07-1.27-.5-4.8 1.3-6.59 1.66-1.67 2.15-1.52 4.05-3.67s-11.78-.6-13.8.32"/><path fill="#804b24" d="M16.13 8.45c.5 0 1-.23 1.35-.6.36-.38.52-.92.5-1.43s-.1-1.03-.42-1.45a2.2 2.2 0 0 0-1.3-.73c.46.17.92.4 1.2.8s.35.9.35 1.39c.03.48-.11.96-.43 1.33-.3.37-.75.63-1.25.69M16.92 12.86q.53-.14.95-.5c.29-.24.46-.58.56-.93q.1-.49.03-.98-.1-.49-.4-.9a2.6 2.6 0 0 0-1.62-.95c.6.2 1.16.53 1.5 1.04.36.5.46 1.15.34 1.75-.09.33-.22.66-.48.9q-.38.36-.88.57"/><path fill="#804b24" d="M16.49 17.75c.59 0 1.2-.21 1.64-.63.46-.42.7-1.03.74-1.63s-.05-1.25-.42-1.74a2.4 2.4 0 0 0-1.53-.9c.57.17 1.1.5 1.42.97.33.48.42 1.08.36 1.65a2.4 2.4 0 0 1-.66 1.56c-.4.4-.97.65-1.55.72M15.97 22.97c.64-.11 1.29-.3 1.82-.72.55-.4.85-1.1.81-1.77a2.3 2.3 0 0 0-.76-1.8c-.52-.44-1.2-.6-1.84-.67.64.13 1.28.34 1.76.77.48.42.69 1.07.68 1.7.04.64-.23 1.27-.73 1.67-.5.41-1.12.65-1.74.82M18.13 9.83q-.31-.57-.86-.94a3 3 0 0 0-1.2-.42q-1.27-.22-2.53-.33-1.27-.08-2.55-.05c-.84.03-1.7.07-2.5.37.4-.13.82-.17 1.24-.2q.63-.07 1.27-.06 1.26 0 2.53.1 1.26.09 2.52.28c.81.11 1.64.5 2.08 1.25"/><path fill="#804b24" d="M18.23 13.58c-.3-.34-.72-.59-1.16-.72-.44-.15-.91-.13-1.36-.16l-2.73-.13-2.73-.08a6 6 0 0 0-2.7.34c.87-.3 1.8-.29 2.7-.23l2.73.13 2.73.08c.45.02.9 0 1.34.12q.67.17 1.18.65M8.47 17.76a90 90 0 0 0 7.84.06c.67 0 1.36-.25 1.83-.74q.37-.37.52-.86.14-.48.14-.98a2.6 2.6 0 0 1-.72 1.78c-.46.46-1.13.68-1.77.67l-1.96.03-1.96.03h-1.96z"/><defs><linearGradient id="paint0_linear_15759_16997" x1="13.17" x2="22.69" y1="20.37" y2="19.99" gradientUnits="userSpaceOnUse"><stop offset="0" stop-color="#ffcb4b"/><stop offset="1" stop-color="#ffd748"/></linearGradient><linearGradient id="paint1_linear_15759_16997" x1="22.77" x2="23.43" y1="15.41" y2="8.26" gradientUnits="userSpaceOnUse"><stop offset="0" stop-color="#ffcb4b"/><stop offset="1" stop-color="#ffd748"/></linearGradient><linearGradient id="paint2_linear_15759_16997" x1="24.66" x2="17.49" y1="26.01" y2="15.76" gradientUnits="userSpaceOnUse"><stop offset="0" stop-color="#ffcb4b"/><stop offset="1" stop-color="#ffd748"/></linearGradient><linearGradient id="paint3_linear_15759_16997" x1="29.85" x2="11.48" y1="30.1" y2="28.72" gradientUnits="userSpaceOnUse"><stop offset=".31" stop-color="#ffbc47" stop-opacity="0"/><stop offset="1" stop-color="#ff8900"/></linearGradient><linearGradient id="paint4_linear_15759_16997" x1="30.2" x2="6.08" y1="13.77" y2="13.77" gradientUnits="userSpaceOnUse"><stop stop-color="#ffbc47" stop-opacity="0"/><stop offset="1" stop-color="#ffa754"/></linearGradient><linearGradient id="paint5_linear_15759_16997" x1="34.09" x2="-13.56" y1="13.73" y2="12.21" gradientUnits="userSpaceOnUse"><stop stop-color="#ffbc47" stop-opacity="0"/><stop offset="1" stop-color="#c86f34"/></linearGradient><linearGradient id="paint6_linear_15759_16997" x1="26.52" x2="18.64" y1="7.5" y2="11.77" gradientUnits="userSpaceOnUse"><stop stop-color="#ffbc47" stop-opacity="0"/><stop offset="1" stop-color="#c86f34"/></linearGradient><linearGradient id="paint7_linear_15759_16997" x1="17.49" x2="10.92" y1="13.57" y2="14.43" gradientUnits="userSpaceOnUse"><stop stop-color="#643800" stop-opacity="0"/><stop offset="1" stop-color="#643800"/></linearGradient><linearGradient id="paint8_linear_15759_16997" x1="29.16" x2="27.73" y1="28.08" y2="4.47" gradientUnits="userSpaceOnUse"><stop stop-color="#ffbc47" stop-opacity="0"/><stop offset="1" stop-color="#ffa754"/></linearGradient><linearGradient id="paint9_linear_15759_16997" x1="7.34" x2="16.66" y1="20.5" y2="20.5" gradientUnits="userSpaceOnUse"><stop offset="0" stop-color="#ffbc47"/><stop offset="1" stop-color="#ffd748"/></linearGradient><linearGradient id="paint10_linear_15759_16997" x1="7.34" x2="16.67" y1="10.64" y2="10.64" gradientUnits="userSpaceOnUse"><stop offset="0" stop-color="#ffbc47"/><stop offset="1" stop-color="#ffd748"/></linearGradient><linearGradient id="paint11_linear_15759_16997" x1="7.34" x2="16.66" y1="6.22" y2="6.22" gradientUnits="userSpaceOnUse"><stop offset="0" stop-color="#ffbc47"/><stop offset="1" stop-color="#ffd748"/></linearGradient><linearGradient id="paint12_linear_15759_16997" x1="17.92" x2="13.06" y1="20.45" y2="20.56" gradientUnits="userSpaceOnUse"><stop offset="0" stop-color="#ffcb4b"/><stop offset="1" stop-color="#ffd748"/></linearGradient><linearGradient id="paint13_linear_15759_16997" x1="9.42" x2="14.38" y1="10.57" y2="10.57" gradientUnits="userSpaceOnUse"><stop offset="0" stop-color="#ffcb4b"/><stop offset="1" stop-color="#ffd748"/></linearGradient><linearGradient id="paint14_linear_15759_16997" x1="9.42" x2="14.38" y1="6.22" y2="6.22" gradientUnits="userSpaceOnUse"><stop offset="0" stop-color="#ffcb4b"/><stop offset="1" stop-color="#ffd748"/></linearGradient><linearGradient id="paint15_linear_15759_16997" x1="15.47" x2="18.11" y1="20.56" y2="20.56" gradientUnits="userSpaceOnUse"><stop offset="0" stop-color="#fba23b" stop-opacity="0"/><stop offset="1" stop-color="#fba23b"/></linearGradient><linearGradient id="paint16_linear_15759_16997" x1="15.94" x2="18.98" y1="20.49" y2="20.49" gradientUnits="userSpaceOnUse"><stop offset="0" stop-color="#ffbc47"/><stop offset="1" stop-color="#e89043"/></linearGradient><linearGradient id="paint21_linear_15759_16997" x1="15.15" x2="18.98" y1="10.69" y2="10.69" gradientUnits="userSpaceOnUse"><stop offset="0" stop-color="#fba23b" stop-opacity="0"/><stop offset="1" stop-color="#fba23b"/></linearGradient><linearGradient id="paint22_linear_15759_16997" x1="15.97" x2="18.03" y1="10.83" y2="10.83" gradientUnits="userSpaceOnUse"><stop offset="0" stop-color="#ffbc47"/><stop offset="1" stop-color="#fba23b"/></linearGradient><linearGradient id="paint23_linear_15759_16997" x1="15.29" x2="19.77" y1="6.2" y2="7.02" gradientUnits="userSpaceOnUse"><stop offset="0" stop-color="#fba23b" stop-opacity="0"/><stop offset="1" stop-color="#fba23b"/></linearGradient><linearGradient id="paint24_linear_15759_16997" x1="15.75" x2="17.65" y1="6.34" y2="6.34" gradientUnits="userSpaceOnUse"><stop offset="0" stop-color="#ffbc47"/><stop offset="1" stop-color="#fba23b"/></linearGradient><linearGradient id="paint25_linear_15759_16997" x1="12.74" x2="11.53" y1="21.08" y2="15.26" gradientUnits="userSpaceOnUse"><stop stop-color="#ffbc47" stop-opacity="0"/><stop offset="1" stop-color="#c86f34"/></linearGradient><linearGradient id="paint26_linear_15759_16997" x1="11.82" x2="13.13" y1="9.57" y2="14.31" gradientUnits="userSpaceOnUse"><stop stop-color="#ffbc47" stop-opacity="0"/><stop offset="1" stop-color="#c86f34"/></linearGradient><linearGradient id="paint27_linear_15759_16997" x1="7.34" x2="16.66" y1="15.16" y2="15.16" gradientUnits="userSpaceOnUse"><stop offset="0" stop-color="#ffbc47"/><stop offset="1" stop-color="#ffd748"/></linearGradient><linearGradient id="paint28_linear_15759_16997" x1="17.04" x2="9.89" y1="15.42" y2="15.16" gradientUnits="userSpaceOnUse"><stop offset="0" stop-color="#ffcb4b"/><stop offset=".74" stop-color="#ffd748"/><stop offset="1" stop-color="#ffcb4b"/></linearGradient><linearGradient id="paint29_linear_15759_16997" x1="14.25" x2="19.59" y1="15.26" y2="15.26" gradientUnits="userSpaceOnUse"><stop offset="0" stop-color="#fba23b" stop-opacity="0"/><stop offset="1" stop-color="#fba23b"/></linearGradient><linearGradient id="paint31_linear_15759_16997" x1="16.73" x2="18.42" y1="15.27" y2="15.27" gradientUnits="userSpaceOnUse"><stop offset="0" stop-color="#ffbc47"/><stop offset="1" stop-color="#fba23b"/></linearGradient><linearGradient id="paint32_linear_15759_16997" x1="12.29" x2="11.28" y1="15.78" y2="9.34" gradientUnits="userSpaceOnUse"><stop stop-color="#ffbc47" stop-opacity="0"/><stop offset="1" stop-color="#c86f34"/></linearGradient><linearGradient id="paint33_linear_15759_16997" x1="13" x2="10.4" y1="10.8" y2="5.16" gradientUnits="userSpaceOnUse"><stop stop-color="#ffbc47" stop-opacity="0"/><stop offset="1" stop-color="#c86f34"/></linearGradient><linearGradient id="paint34_linear_15759_16997" x1="13.51" x2="13.13" y1="5.85" y2="2.29" gradientUnits="userSpaceOnUse"><stop stop-color="#ffbc47" stop-opacity="0"/><stop offset="1" stop-color="#c86f34"/></linearGradient><linearGradient id="paint35_linear_15759_16997" x1="13.42" x2="13.42" y1="6.39" y2="8.97" gradientUnits="userSpaceOnUse"><stop stop-color="#ffbc47" stop-opacity="0"/><stop offset="1" stop-color="#c86f34"/></linearGradient><linearGradient id="paint36_linear_15759_16997" x1="31.12" x2="34.45" y1="15.85" y2="25.99" gradientUnits="userSpaceOnUse"><stop stop-color="#c86f34" stop-opacity="0"/><stop offset="1" stop-color="#c86f34"/></linearGradient><linearGradient id="paint37_linear_15759_16997" x1="30.55" x2="30.74" y1="9.69" y2="2.43" gradientUnits="userSpaceOnUse"><stop stop-color="#ffbc47" stop-opacity="0"/><stop offset="1" stop-color="#c86f34"/></linearGradient><linearGradient id="paint39_linear_15759_16997" x1="20.38" x2="17.94" y1="21.74" y2="43.79" gradientUnits="userSpaceOnUse"><stop stop-color="#ffbc47" stop-opacity="0"/><stop offset="1" stop-color="#c86f34"/></linearGradient><radialGradient id="paint17_radial_15759_16997" cx="0" cy="0" r="1" gradientTransform="matrix(-3.57 -1 .46 -1.66 26 9.47)" gradientUnits="userSpaceOnUse"><stop stop-color="#fbe07a"/><stop offset="1" stop-color="#ffd748" stop-opacity="0"/></radialGradient><radialGradient id="paint18_radial_15759_16997" cx="0" cy="0" r="1" gradientTransform="rotate(182 6.22 10.13)scale(3.17 2.08)" gradientUnits="userSpaceOnUse"><stop stop-color="#fbe07a"/><stop offset="1" stop-color="#ffd748"/></radialGradient><radialGradient id="paint19_radial_15759_16997" cx="0" cy="0" r="1" gradientTransform="matrix(-3.4 0 0 -1.84 12.23 10.25)" gradientUnits="userSpaceOnUse"><stop stop-color="#fbe07a"/><stop offset="1" stop-color="#ffd748" stop-opacity="0"/></radialGradient><radialGradient id="paint20_radial_15759_16997" cx="0" cy="0" r="1" gradientTransform="matrix(-3.12 0 0 -1.95 13.41 6.12)" gradientUnits="userSpaceOnUse"><stop stop-color="#fbe07a"/><stop offset="1" stop-color="#ffd748" stop-opacity="0"/></radialGradient><radialGradient id="paint30_radial_15759_16997" cx="0" cy="0" r="1" gradientTransform="rotate(177 5.4 7.76)scale(3.49 2.3)" gradientUnits="userSpaceOnUse"><stop stop-color="#fbe07a"/><stop offset="1" stop-color="#ffd748" stop-opacity="0"/></radialGradient><radialGradient id="paint38_radial_15759_16997" cx="0" cy="0" r="1" gradientTransform="rotate(259 23.1 8.58)scale(3.35 1.96)" gradientUnits="userSpaceOnUse"><stop stop-color="#fbe07a"/><stop offset="1" stop-color="#ffd748" stop-opacity="0"/></radialGradient></defs></svg>
