<svg xmlns="http://www.w3.org/2000/svg" width="40" height="40" fill="none" viewBox="0 0 40 40"><path fill="url(#paint0_radial_15759_16914)" d="M20 38a18 18 0 1 0 0-36 18 18 0 0 0 0 36"/><path fill="url(#paint1_radial_15759_16914)" d="M20 38a18 18 0 1 0 0-36 18 18 0 0 0 0 36" opacity=".5"/><path fill="url(#paint2_linear_15759_16914)" d="M16.1 11.43c-.04-.87-.85-1.37-2.19-1.3-1.14.07-3.6.96-5.17 3.7-.3.52.2.76.51.43 1-1.14 3.76-2.68 5.99-2.51.9.06.87-.32.87-.32"/><path fill="url(#paint3_radial_15759_16914)" d="M14.12 20.77c.96 0 1.74-1.17 1.74-2.62s-.78-2.62-1.74-2.62c-.95 0-1.73 1.17-1.73 2.62s.78 2.62 1.73 2.62"/><path fill="url(#paint4_linear_15759_16914)" d="M14.12 16.42c.75 0 1.4.64 1.74 1.6-.03-1.41-.8-2.55-1.74-2.55s-1.7 1.14-1.73 2.55c.34-.96.99-1.6 1.73-1.6"/><path fill="url(#paint5_radial_15759_16914)" d="M25.88 20.77c.95 0 1.73-1.17 1.73-2.62s-.78-2.62-1.73-2.62c-.96 0-1.74 1.17-1.74 2.62s.78 2.62 1.74 2.62"/><path fill="url(#paint6_linear_15759_16914)" d="M23.9 11.5c.04-.87.85-1.37 2.19-1.3 1.14.06 3.6.96 5.17 3.7.3.52-.2.76-.51.42-1-1.13-3.76-2.68-5.99-2.5-.9.06-.87-.33-.87-.33"/><path fill="url(#paint7_linear_15759_16914)" d="M25.88 16.48c-.75 0-1.4.64-1.74 1.6.03-1.41.8-2.55 1.74-2.55s1.7 1.14 1.73 2.55c-.34-.95-.99-1.6-1.73-1.6"/><path fill="#643800" d="M20 26.19c6.39 0 8.44 6.32 6.49 5.33A12.4 12.4 0 0 0 20 30.06c-2.22 0-3.88.13-6.49 1.46-1.95.99.1-5.33 6.49-5.33"/><path fill="url(#paint8_linear_15759_16914)" d="M20 27.3a8.2 8.2 0 0 1 7.2 3.9c.05-1.28-2.3-5-7.2-5s-7.25 3.72-7.2 5a8.2 8.2 0 0 1 7.2-3.9"/><defs><linearGradient id="paint2_linear_15759_16914" x1="12.4" x2="12.27" y1="13.08" y2="10.81" gradientUnits="userSpaceOnUse"><stop offset="0" stop-color="#3c2200"/><stop offset="1" stop-color="#7a4400"/></linearGradient><linearGradient id="paint4_linear_15759_16914" x1="14.12" x2="14.12" y1="15.51" y2="17.96" gradientUnits="userSpaceOnUse"><stop offset="0" stop-color="#3c2200"/><stop offset="1" stop-color="#512d00"/></linearGradient><linearGradient id="paint6_linear_15759_16914" x1="27.6" x2="27.73" y1="13.15" y2="10.87" gradientUnits="userSpaceOnUse"><stop offset="0" stop-color="#3c2200"/><stop offset="1" stop-color="#7a4400"/></linearGradient><linearGradient id="paint7_linear_15759_16914" x1="25.88" x2="25.88" y1="15.58" y2="18.02" gradientUnits="userSpaceOnUse"><stop offset="0" stop-color="#3c2200"/><stop offset="1" stop-color="#512d00"/></linearGradient><linearGradient id="paint8_linear_15759_16914" x1="20" x2="20" y1="24.54" y2="29.58" gradientUnits="userSpaceOnUse"><stop offset="0" stop-color="#3c2200"/><stop offset="1" stop-color="#512d00"/></linearGradient><radialGradient id="paint0_radial_15759_16914" cx="0" cy="0" r="1" gradientTransform="translate(16.46 12.7)scale(21.71)" gradientUnits="userSpaceOnUse"><stop stop-color="#ffdf30"/><stop offset="1" stop-color="#ffb82e"/></radialGradient><radialGradient id="paint1_radial_15759_16914" cx="0" cy="0" r="1" gradientTransform="translate(16.46 12.7)scale(17.08)" gradientUnits="userSpaceOnUse"><stop stop-color="#ffe95f"/><stop offset="1" stop-color="#ffbb47" stop-opacity="0"/></radialGradient><radialGradient id="paint3_radial_15759_16914" cx="0" cy="0" r="1" gradientTransform="matrix(.7 2.44 -1.58 .46 13.6 18.21)" gradientUnits="userSpaceOnUse"><stop offset="0" stop-color="#7a4400"/><stop offset="1" stop-color="#643800"/></radialGradient><radialGradient id="paint5_radial_15759_16914" cx="0" cy="0" r="1" gradientTransform="rotate(74 .56 25.97)scale(2.54 1.65)" gradientUnits="userSpaceOnUse"><stop offset="0" stop-color="#7a4400"/><stop offset="1" stop-color="#643800"/></radialGradient></defs></svg>
